<?xml version="1.0" encoding="UTF-8" standalone="no"?>
<svg width="12px" height="21px" viewBox="0 0 12 21" version="1.1" xmlns="http://www.w3.org/2000/svg" xmlns:xlink="http://www.w3.org/1999/xlink">
    <!-- Generator: sketchtool 46.2 (44496) - http://www.bohemiancoding.com/sketch -->
    <title>BD92AB11-D8B3-47A9-8998-FB7725ED58E5</title>
    <desc>Created with sketchtool.</desc>
    <defs></defs>
    <g id="Page-1" stroke="none" stroke-width="1" fill="none" fill-rule="evenodd">
        <g id="2.Catalog-menu---Desktop" transform="translate(-23.000000, -121.000000)" fill="#5ACF3C">
            <path d="M28.999775,127.040465 C28.99454,127.03925 28.98932,127.038021 28.984085,127.036807 C27.992255,129.019565 27.00041,131.002324 26.00228,132.997646 L29.000615,132.997646 L29.000615,136.962504 C29.005175,136.963448 29.00975,136.964393 29.01431,136.965322 C30.007505,134.979865 31.0007,132.994408 32.000345,130.996072 L28.999775,130.996072 L28.999775,127.040465 Z M23,124.808096 C23.0675,124.331799 23.2421,123.952024 23.543645,123.634618 C23.91011,123.248876 24.360365,123.032159 24.89423,123.011229 C25.23119,122.998036 25.568915,123.004663 25.906295,123.002429 C25.93565,123.002234 25.96502,123.002399 26.000285,123.002399 C26.000285,122.966237 26.000285,122.93913 26.000285,122.912009 C26.0003,122.607211 25.995065,122.302294 26.001605,121.997631 C26.01038,121.589265 26.202875,121.288336 26.567405,121.106882 C26.674475,121.053598 26.79866,121.034678 26.915,121 L31.085,121 C31.10402,121.005142 31.12274,121.012654 31.14209,121.015112 C31.61486,121.075142 31.99394,121.497886 31.99889,121.975127 C32.001755,122.249925 31.999625,122.524768 31.99973,122.79958 C31.999745,122.864153 31.99973,122.928726 31.99973,123.002399 C32.032505,123.002399 32.059355,123.002399 32.08622,123.002399 C32.373665,123.002414 32.661125,123.002174 32.948585,123.002504 C33.171845,123.002744 33.39296,123.024393 33.604745,123.097736 C34.30304,123.33952 34.753115,123.814918 34.941395,124.532084 C34.96526,124.622954 34.98068,124.716042 35,124.808096 L35,139.185907 C34.9796,139.285457 34.965155,140.386672 34.93784,140.484288 C34.72898,141.23093 34.252175,141.715487 33.50513,141.926612 C33.367505,141.965502 33.221915,141.976252 33.08,142 L24.92,142 C24.82649,141.987616 24.73148,141.982024 24.63971,141.961784 C23.81879,141.78066 23.287715,141.28922 23.060945,140.476912 C23.03435,140.381664 23.020025,139.282999 23,139.185907 C23,134.393298 23,129.600705 23,124.808096 Z" id="Fill-1"></path>
        </g>
    </g>
</svg>