<?xml version="1.0" encoding="UTF-8" standalone="no"?>
<svg width="19px" height="19px" viewBox="0 0 19 19" version="1.1" xmlns="http://www.w3.org/2000/svg" xmlns:xlink="http://www.w3.org/1999/xlink">
    <!-- Generator: sketchtool 46.2 (44496) - http://www.bohemiancoding.com/sketch -->
    <title>9E51929C-F2A6-4F8D-8EF8-3D295B47CBBE</title>
    <desc>Created with sketchtool.</desc>
    <defs></defs>
    <g id="Page-1" stroke="none" stroke-width="1" fill="none" fill-rule="evenodd">
        <g id="2.Catalog-menu---Desktop" transform="translate(-19.000000, -172.000000)" fill="#5ACF3C">
            <path d="M31.3853636,181.145989 C30.4615237,180.184548 29.568593,179.273283 28.6990025,178.338409 C28.4644998,178.086348 28.3041857,178.157526 28.0600135,178.303915 C27.4294937,178.681919 26.7995407,179.073971 26.1324101,179.369949 C24.3606194,180.156105 22.4986021,180.519018 20.497777,180.492626 C20.6789639,180.947928 20.8571166,181.347352 20.9966245,181.760963 C21.11656,182.116505 21.320687,182.186083 21.6538856,182.109655 C22.5478833,181.904605 23.4473493,181.725217 24.3446147,181.535607 C24.3652875,181.559182 24.3859602,181.582757 24.406633,181.606298 C23.6181665,182.258687 22.8296666,182.911075 22.0321641,183.570905 C22.0645737,183.630956 22.0917817,183.700986 22.1348278,183.757977 C22.4438525,184.166859 22.7458752,184.582173 23.0693709,184.978329 C23.7775803,185.845537 23.7894505,185.851101 24.6707778,185.138279 C25.3198031,184.613399 25.9468219,184.058962 26.65073,183.460644 C26.1064691,184.504702 25.6142568,185.464195 25.1064066,186.414613 C24.9374567,186.730758 24.9738674,186.961643 25.2596186,187.171178 C25.7676022,187.543653 26.2666831,187.929273 26.8007744,188.333043 C27.1280712,187.765776 27.4291936,187.243816 27.730316,186.721926 C27.8140407,187.156156 27.8088059,187.546852 27.815041,187.93734 C27.8315126,188.967733 27.9503144,189.107307 29.061543,189.323448 C29.0530739,186.372435 29.7452452,183.631304 31.3853636,181.145989 M32.9208008,181.425425 C31.543927,183.353905 30.8958855,184.506719 30.5668549,186.887231 C30.4200448,187.949475 30.4323484,189.036685 30.3905694,190.113325 C30.3591268,190.923856 30.111987,191.140971 29.3438932,190.91711 C28.5882143,190.696881 27.8714771,190.413349 27.1898125,190.073344 C27.0881864,190.022655 27.1557158,189.328454 27.0556359,189.275276 C26.9708451,189.230223 26.7182286,189.826541 26.6345307,189.779732 C25.5345608,189.164559 24.5282982,188.39896 23.5980447,187.514185 C23.4810486,187.402909 23.9574028,186.751455 23.8427761,186.636471 C23.7584451,186.551877 23.0825977,187.004589 22.999516,186.918046 C22.7407696,186.648521 22.488014,186.369666 22.2408258,186.082229 C21.5934072,185.329429 21.0095782,184.536169 20.509971,183.691834 C20.441069,183.575389 21.4248078,183.052635 21.3591637,182.93422 C21.284978,182.800397 20.1618684,183.070636 20.0919908,182.93422 C19.6815555,182.132963 19.3467816,181.286288 19.103498,180.386051 C19.0461477,180.173839 19.0029349,179.949978 19.0001007,179.73088 C18.9952993,179.36369 19.1619486,179.141151 19.5470291,179.130823 C20.206991,179.113194 20.8665194,179.078422 21.5263478,179.054152 C24.2854305,178.952722 26.1776468,178.651551 28.2305206,176.716605 C29.6614438,175.367876 31.1991652,175.236821 32.5954448,176.326187 C33.4471968,176.990746 33.9722416,177.912295 33.9765187,179.054152 C33.9807959,180.196008 33.4234178,180.721448 32.9208008,181.425425 Z M32.8040023,175.566214 L37.2788412,172 L38,172.710796 L34.2827189,177.150745 L32.8040023,175.566214 Z" id="Fill-1"></path>
        </g>
    </g>
</svg>