<?xml version="1.0" encoding="UTF-8" standalone="no"?>
<svg width="17px" height="17px" viewBox="0 0 17 17" version="1.1" xmlns="http://www.w3.org/2000/svg" xmlns:xlink="http://www.w3.org/1999/xlink">
    <!-- Generator: sketchtool 46.2 (44496) - http://www.bohemiancoding.com/sketch -->
    <title>9117F8E9-55AA-4856-BEA7-1753AE10618D</title>
    <desc>Created with sketchtool.</desc>
    <defs></defs>
    <g id="Page-1" stroke="none" stroke-width="1" fill="none" fill-rule="evenodd">
        <g id="2.Catalog-menu---Desktop" transform="translate(-21.000000, -269.000000)" fill="#5ACF3C">
            <path d="M27.0409,279.435207 C26.4902293,279.851669 25.9587596,280.221758 25.4656014,280.637226 C25.1098391,280.937075 25.1385501,281.305989 25.4771944,281.604392 C25.7996266,281.888512 26.1065712,281.854342 26.3995679,281.479552 C26.787664,280.983178 27.1625367,280.476499 27.5080644,280.020623 C27.3453992,279.816776 27.1970442,279.630918 27.0409,279.435207 M25.3281148,277.766374 C24.7936563,278.201187 24.2555749,278.633831 23.723109,279.073254 C22.3956121,280.169056 22.2647373,282.016606 23.4191532,283.319237 C24.5574476,284.60379 26.4664092,284.724561 27.6844059,283.539356 C28.2629724,282.976359 28.7524172,282.32215 29.254542,281.741344 C29.0616261,281.548074 28.8970589,281.383188 28.7070412,281.192811 C28.4091537,281.598426 28.0875367,281.996628 27.8096653,282.423305 C27.245409,283.289497 26.4156895,283.564667 25.4610728,283.407556 C24.4637973,283.243484 23.8338771,282.605276 23.5944078,281.616415 C23.3787586,280.725906 23.7554427,279.768684 24.5032862,279.225665 C24.9385697,278.909544 25.3623506,278.577694 25.8362173,278.218815 C25.6489168,278.052121 25.4928632,277.91318 25.3281148,277.766374 M25.022076,275.198625 C27.2959475,277.464536 29.5331379,279.693925 31.8452303,281.997893 C31.5352969,282.28581 31.2352357,282.786704 30.8280292,282.898345 C29.8489584,283.166646 29.5865747,284.083731 28.9698778,284.666707 C27.5980919,285.963372 25.5874192,286.36971 23.8645806,285.639567 C22.105242,284.893876 20.9970172,283.223687 21.000006,281.318916 C21.0024514,279.711824 21.7179611,278.469397 22.9639442,277.497983 C23.2250599,277.294317 23.4966819,277.0996 23.7311698,276.868091 C23.8650335,276.73593 24.2324794,276.657555 23.9557855,276.332936 C23.9457321,276.321094 24.009494,276.235307 24.0494357,276.194176 C24.3826458,275.850303 24.7183919,275.50887 25.022076,275.198625 Z M29.3320616,273.853416 C28.8794791,273.419055 28.4905679,273.045802 28.0475859,272.620752 C28.9447806,271.68161 29.7364604,270.599006 30.7643488,269.831348 C32.7245736,268.367266 35.5571767,268.913359 37.0392779,270.87038 C38.5451993,272.858769 38.2516592,275.642478 36.3628949,277.241163 C35.6984672,277.803527 35.0249824,278.355134 34.376314,278.894538 C33.9913879,278.505828 33.6124395,278.123355 33.1804166,277.687095 C33.7777313,277.190811 34.4022173,276.63369 35.066645,276.128909 C36.0736116,275.363963 36.5475688,274.363531 36.2939704,273.137556 C36.0324019,271.872801 35.2058524,271.02939 33.9284412,270.745993 C32.7743875,270.489986 31.7926902,270.86116 31.0351557,271.782222 C30.4632008,272.477562 29.8915176,273.173082 29.3320616,273.853416 Z M35.4126437,285.956393 L33.7273921,285.956393 C33.7273921,285.545807 33.7250372,285.146339 33.7278449,284.746871 C33.7388945,283.194832 33.1511804,281.856312 32.1231107,280.745505 C30.7329389,279.243546 29.2662347,277.812007 27.8285131,276.354071 C27.1858224,275.702213 26.5338029,275.059575 25.8839572,274.410791 C26.2988622,274.016928 26.6881357,273.647381 27.1380916,273.220252 C29.2720312,275.436353 31.5112141,277.628409 33.5884564,279.964016 C35.06458,281.623809 35.5199701,283.714348 35.4126437,285.956393 Z M32.6538921,277.228778 C32.2714114,276.834192 31.8849456,276.435628 31.4585381,275.995843 C31.9986121,275.579833 32.5693895,275.141494 33.1384461,274.700895 C33.2927788,274.581389 33.460516,274.471827 33.5893983,274.328366 C33.8655488,274.020923 33.8304073,273.701367 33.5163076,273.423575 C33.2058308,273.149037 32.8941765,273.168111 32.6215583,273.510176 C32.2468667,273.980425 31.8978973,274.471194 31.5252888,274.943071 C31.349672,275.165449 31.144529,275.364415 30.9216342,275.608037 C30.5425046,275.178647 30.1871046,274.776016 29.844294,274.387757 C30.3528493,273.702181 30.8413884,273.022389 31.3527514,272.360135 C31.8705449,271.689655 32.9501493,271.417829 33.8668168,271.700503 C34.7141976,271.961933 35.3748213,272.794677 35.4308847,273.662496 C35.4908426,274.589525 35.1745692,275.321114 34.3923994,275.867478 C33.790375,276.288099 33.2327303,276.771998 32.6538921,277.228778 Z" id="Fill-1"></path>
        </g>
    </g>
</svg>