<?xml version="1.0" encoding="UTF-8" standalone="no"?>
<svg width="19px" height="19px" viewBox="0 0 19 19" version="1.1" xmlns="http://www.w3.org/2000/svg" xmlns:xlink="http://www.w3.org/1999/xlink">
    <!-- Generator: sketchtool 46.2 (44496) - http://www.bohemiancoding.com/sketch -->
    <title>1478F22C-9325-496E-9970-85C5C812B610</title>
    <desc>Created with sketchtool.</desc>
    <defs></defs>
    <g id="Page-1" stroke="none" stroke-width="1" fill="none" fill-rule="evenodd">
        <g id="2.Catalog-menu---Desktop" transform="translate(-22.000000, -316.000000)" fill="#5ACF3C">
            <path d="M33.3462468,331.969695 L28.6610153,331.969695 C28.3014511,331.969695 28.0072621,331.68505 28.0072621,331.337151 L28.0072621,320.533616 C28.0072621,320.185717 28.3014511,319.901072 28.6610153,319.901072 L33.3462468,319.901072 C33.705811,319.901072 34,320.185717 34,320.533616 L34,331.337151 C34,331.68505 33.705811,331.969695 33.3462468,331.969695 Z M33.7269872,332.623376 C33.881055,332.886936 34.0351229,333.572192 33.6242935,333.888464 C33.213464,334.204736 33.1528284,333.888464 32.4384941,334.942704 C31.7241597,335.996944 31.3646499,338 31.3646499,338 L31.0308544,338 L30.6970589,338 C30.6970589,338 30.3376036,335.996944 29.6232693,334.942704 C28.9088804,333.888464 28.8482993,334.204736 28.4374699,333.888464 C28.0266404,333.572192 28.1807083,332.886936 28.3347761,332.623376 C28.488844,332.359816 28.7456056,332.307104 28.7456056,332.307104 L31.0308544,332.307104 L33.3161578,332.307104 C33.3161578,332.307104 33.5729194,332.359816 33.7269872,332.623376 Z M33.4007262,315 C33.7303268,315 34,315.260924 34,315.579832 C34,315.89874 33.7303268,316.159664 33.4007262,316.159664 L31.7045635,316.159664 C31.7060344,316.177112 31.7073419,316.194612 31.7073419,316.212376 L31.7073419,318.110008 C31.7073419,318.139896 31.7044,318.169045 31.7002051,318.197879 L30.3615364,318.197879 C30.3573415,318.169045 30.3543996,318.139896 30.3543996,318.110008 L30.3543996,316.212376 C30.3543996,316.194612 30.3557071,316.177112 30.3571781,316.159664 L28.6065359,316.159664 C28.2769353,316.159664 28.0072621,315.89874 28.0072621,315.579832 C28.0072621,315.260924 28.2769353,315 28.6065359,315 L33.4007262,315 Z M33.4097535,319.693666 L28.5902302,319.693666 C28.2655872,319.693666 28,319.436695 28,319.122584 L28,318.988169 C28,318.674058 28.2655872,318.417034 28.5902302,318.417034 L33.4097535,318.417034 C33.7343964,318.417034 33.9999837,318.674058 33.9999837,318.988169 L33.9999837,319.122584 C33.9999837,319.436695 33.7343964,319.693666 33.4097535,319.693666 Z" id="Fill-1" transform="translate(31.000000, 326.500000) rotate(-315.000000) translate(-31.000000, -326.500000) "></path>
        </g>
    </g>
</svg>