<?xml version="1.0" encoding="UTF-8" standalone="no"?>
<svg width="15px" height="20px" viewBox="0 0 15 20" version="1.1" xmlns="http://www.w3.org/2000/svg" xmlns:xlink="http://www.w3.org/1999/xlink">
    <!-- Generator: sketchtool 46.2 (44496) - http://www.bohemiancoding.com/sketch -->
    <title>84BC35D4-5956-46F1-B061-E447E5C850C5</title>
    <desc>Created with sketchtool.</desc>
    <defs></defs>
    <g id="Page-1" stroke="none" stroke-width="1" fill="none" fill-rule="evenodd">
        <g id="2.Catalog-menu---Desktop" transform="translate(-23.000000, -365.000000)" fill="#5ACF3C">
            <path d="M27.9757229,382.139262 L28.3294542,381.676861 C28.7817404,381.085634 29.0715711,380.422252 29.2735524,379.910382 L29.5989636,379.085716 L30.3123346,382.139262 L27.9757229,382.139262 Z M27.1798184,381.993027 C26.9933399,382.093908 26.8016383,382.145034 26.6100292,382.145034 C26.4096223,382.145034 26.2094747,382.089146 26.0151058,381.97895 C25.778007,381.844506 25.5695245,381.65806 25.3590231,381.392143 C25.0080146,380.94879 24.7308159,380.427071 24.4601739,379.700468 C24.1710471,378.924166 23.9534703,378.061556 23.795034,377.063321 C23.6276701,376.009007 23.5483779,374.914501 23.5526379,373.715381 C23.5681222,372.147406 23.722743,370.759591 24.0252797,369.472619 C24.2539881,368.4997 24.5281122,367.730865 24.8879927,367.053063 C25.0764901,366.698095 25.3481323,366.245827 25.7792665,365.896612 C26.0472228,365.679592 26.3268665,365.569549 26.6104367,365.569549 C26.8837829,365.569549 27.1546657,365.671935 27.4155837,365.873906 C27.851478,366.211311 28.1305105,366.670703 28.3248978,367.033196 C28.6863341,367.707264 28.9630513,368.478518 29.1956678,369.460409 C29.40641,370.34982 29.5443981,371.29011 29.6175411,372.335052 C29.6839421,373.283666 29.6885541,374.237728 29.6312473,375.170703 C29.5314143,376.796814 29.2786644,378.190457 28.8584952,379.431255 C28.6020595,380.188432 28.319619,380.767163 27.9696292,381.252499 C27.8106187,381.473004 27.5557389,381.789666 27.1798184,381.993027 Z M27.3082307,371.094534 C27.1150473,370.85018 26.8677429,370.715622 26.6118259,370.715622 C26.354816,370.715622 26.1064003,370.851132 25.9123464,371.097181 C25.7635599,371.285819 25.6425193,371.514476 25.5423159,371.796203 C25.3375748,372.371848 25.2333891,373.029249 25.2239059,373.805779 C25.227425,374.439464 25.2841206,374.961107 25.4022903,375.447262 C25.528943,375.968161 25.6863607,376.329054 25.9126983,376.617448 C26.1068263,376.864754 26.3556865,377.00097 26.6134558,377.00097 C26.8713177,377.00097 27.1174367,376.86384 27.3064897,376.614876 C27.4248631,376.458983 27.5330866,376.267527 27.6281225,376.045803 C27.8068958,375.628737 27.9116927,375.158506 27.9678882,374.521106 C28.041772,373.683564 27.9860582,372.915796 27.7975608,372.173934 C27.6799097,371.71098 27.5244369,371.367994 27.3082307,371.094534 Z M37.7341892,384.433098 C37.8864021,384.435689 38.0006822,384.55798 37.9999969,384.717549 C37.9993301,384.876909 37.883772,384.997181 37.7312071,384.997333 C37.4343196,384.997638 37.1374136,384.998057 36.8405075,384.998495 C36.3205608,384.999238 35.8005955,385 35.2806673,385 C34.4820771,385 33.8255128,384.998171 33.2144198,384.994266 C32.7551878,384.991352 32.3143481,384.805648 31.8667294,384.426546 C31.4408554,384.065901 31.0879947,383.60089 30.7562675,382.963185 C30.6676031,382.792777 30.5352456,382.709936 30.3516195,382.709936 L30.3497488,382.709936 C30.1742909,382.71045 29.9987403,382.710659 29.8232824,382.710659 C29.559049,382.710659 29.2948155,382.710221 29.0305636,382.709764 C28.7660524,382.709326 28.5015411,382.708869 28.2370484,382.708869 C27.6420695,382.708869 27.1848379,382.711212 26.7544815,382.71645 C26.7452021,382.716564 26.7359041,382.716622 26.7266616,382.716622 C26.1608547,382.716622 25.6694131,382.501564 25.2243319,382.059145 C24.8319455,381.669127 24.50596,381.176324 24.198441,380.508256 C23.8221501,379.690753 23.538376,378.750844 23.3309308,377.634832 C23.1508979,376.666503 23.04486,375.638857 23.0157621,374.580448 C23.0144471,374.532751 23.007594,374.491263 23.002093,374.457928 C23.0013891,374.453718 23.0006853,374.449528 23,374.445318 L23,373.248693 C23.0008335,373.242921 23.0017225,373.23715 23.0025931,373.231378 C23.0077422,373.197243 23.0141507,373.154746 23.0155214,373.107353 C23.0451379,372.092565 23.1451561,371.105454 23.3128719,370.173451 C23.5078705,369.089669 23.7748081,368.169037 24.1289097,367.358906 C24.4350582,366.658455 24.760914,366.139384 25.1543562,365.725423 C25.5034199,365.35813 25.8630411,365.135206 26.253779,365.043888 C26.3056033,365.031773 26.359076,365.021563 26.415679,365.010743 C26.4342935,365.0072 26.452908,365.003638 26.4715225,365 L31.1736585,365 C31.2197224,365.010705 31.2653604,365.020458 31.3097759,365.029944 C31.4224631,365.054002 31.52889,365.076746 31.6255928,365.110843 C31.9690629,365.231953 32.2777859,365.456344 32.5972146,365.816951 C32.9963244,366.267562 33.3243102,366.825567 33.6293289,367.573029 C33.9401449,368.334759 34.1778179,369.186511 34.3558874,370.176956 C34.5637587,371.333312 34.6652031,372.542776 34.6659625,373.874454 C34.6662774,374.390116 34.6660181,374.905796 34.6657773,375.421457 C34.6654069,376.22856 34.6649994,377.06313 34.666833,377.884177 C34.6700188,379.293554 34.863017,380.538505 35.2568667,381.690176 C35.5143396,382.44299 35.8163021,383.024826 36.2072253,383.521267 C36.4582896,383.84012 36.7194854,384.072568 37.0057229,384.231908 C37.2378949,384.361152 37.4829766,384.428832 37.7341892,384.433098 Z M26.6119815,367.020351 C26.1429884,367.020351 25.689665,367.315184 25.3355448,367.85056 C25.0640323,368.261035 24.8431771,368.758524 24.660329,369.371523 C24.2866867,370.624017 24.0965964,372.054424 24.0792785,373.744043 C24.0792785,373.745776 24.079297,373.747491 24.079297,373.749224 C24.0968002,372.173649 24.2868904,370.839665 24.660329,369.671518 C24.8431771,369.099511 25.0640323,368.635281 25.3355448,368.252254 C25.689665,367.752689 26.1429884,367.477553 26.6119815,367.477553 C27.0789556,367.477553 27.5302602,367.750784 27.8827689,368.246882 C28.2773039,368.802107 28.5610224,369.498481 28.7757097,370.438447 L28.7757097,370.193408 C28.5610224,369.186086 28.2773039,368.439805 27.8827689,367.844807 C27.5302602,367.313145 27.0789556,367.020351 26.6119815,367.020351 Z" id="Fill-8"></path>
        </g>
    </g>
</svg>