<?xml version="1.0" encoding="UTF-8" standalone="no"?>
<svg width="10px" height="19px" viewBox="0 0 10 19" version="1.1" xmlns="http://www.w3.org/2000/svg" xmlns:xlink="http://www.w3.org/1999/xlink">
    <!-- Generator: sketchtool 46.2 (44496) - http://www.bohemiancoding.com/sketch -->
    <title>3BEA1DC5-4527-482A-BE2D-978535B25FCF</title>
    <desc>Created with sketchtool.</desc>
    <defs></defs>
    <g id="Page-1" stroke="none" stroke-width="1" fill="none" fill-rule="evenodd">
        <g id="2.Catalog-menu---Desktop" transform="translate(-24.000000, -416.000000)" fill="#5ACF3C">
            <path d="M27.3472634,417.706919 C27.340263,417.726174 27.3072609,417.737321 27.2832595,417.745429 C26.519212,418.005874 26.0701841,418.619999 25.6941608,419.317223 C25.6511581,419.397282 25.5931545,419.490515 25.52015,419.524971 C25.4521458,419.5574 25.3341385,419.549293 25.2751348,419.504703 C25.2261318,419.467207 25.1921296,419.333437 25.2171312,419.272633 C25.5821539,418.380835 26.1491891,417.692731 27.0262435,417.329932 C27.0862472,417.30561 27.1522513,417.297503 27.2152552,417.281288 C27.3282622,417.279261 27.4222681,417.327905 27.4292685,417.441407 C27.4342688,417.52856 27.3812655,417.619766 27.3472634,417.706919 M33.9076707,420.331643 C34.1686869,422.12436 33.8926697,423.802562 32.8696062,425.298351 C32.6525928,425.616561 32.398577,425.907408 32.1555619,426.206364 C32.0145532,426.378643 31.8925456,426.546868 31.8395423,426.785019 C31.753537,427.1691 31.6495305,427.580543 31.544524,427.960571 L26.4552081,427.960571 C26.4002046,427.753836 26.3452012,427.516699 26.2911979,427.309964 C26.2311941,427.074853 26.180191,426.837716 26.116187,426.603619 C26.0971858,426.535721 26.0531831,426.470863 26.0091804,426.415125 C25.7191624,426.047259 25.407143,425.697633 25.1381263,425.313552 C24.4700848,424.365003 24.1130627,423.290792 24.0260573,422.114226 C23.9510526,421.105886 24.0290574,420.115788 24.377079,419.167239 C24.9031117,417.733268 25.9111743,416.835389 27.2672585,416.337806 C27.8362938,416.129044 28.4243303,415.992235 29.0273677,416.000342 C29.675408,416.008449 30.3064471,416.158433 30.9114847,416.406718 C32.6225909,417.109009 33.6296534,418.419344 33.9076707,420.331643 Z M31.1186975,430.472807 C31.4767198,430.323836 31.8847451,430.498142 32.0317542,430.860942 C32.1777633,431.223742 32.0057526,431.638225 31.6477304,431.786182 L27.1394505,433.650851 C27.0534452,433.687334 26.9634396,433.703548 26.8754341,433.703548 C26.599417,433.703548 26.3384008,433.53735 26.2273939,433.262716 C26.0803848,432.899917 26.2523955,432.485433 26.6104177,432.337476 L31.1186975,430.472807 Z M30.6117661,432.613427 C30.9717884,432.464456 31.3788137,432.639775 31.5248228,433.001561 C31.6708318,433.364361 31.4988211,433.778845 31.1407989,433.926802 L28.6736458,434.947303 C28.5866404,434.982772 28.4976348,435 28.4096294,435 C28.1326122,435 27.871596,434.832788 27.7605891,434.558155 C27.61458,434.196368 27.7865907,433.781885 28.1446129,433.633927 L30.6117661,432.613427 Z M31.3916145,428.510851 C32.027654,428.610165 32.2296665,429.303335 31.8906455,429.718832 C31.8146407,429.811052 31.7076341,429.892125 31.5996274,429.935701 C30.4235544,430.416056 29.2434811,430.886277 28.0644079,431.360551 C27.7073858,431.503442 27.3513637,431.649372 26.9933415,431.790236 C26.5873163,431.951368 26.2012923,431.785169 26.0562833,431.38994 C25.9092742,430.989645 26.0912855,430.582255 26.4963106,430.415043 C26.8123302,430.2833 27.13135,430.156624 27.4453695,429.997519 C27.2013544,429.997519 26.9583393,430.001573 26.7153242,429.996506 C26.3913041,429.989412 26.1222874,429.762409 26.0422824,429.436092 C25.9672778,429.127002 26.0982859,428.789538 26.3633023,428.625366 C26.4363069,428.580776 26.518312,428.553414 26.6103177,428.510851 C26.6093176,428.506797 26.6073175,428.502744 26.6063174,428.49869 L31.3936146,428.49869 C31.3926146,428.502744 31.3926146,428.505784 31.3916145,428.510851 Z" id="Fill-7"></path>
        </g>
    </g>
</svg>