<?xml version="1.0" encoding="UTF-8" standalone="no"?>
<svg width="20px" height="20px" viewBox="0 0 20 20" version="1.1" xmlns="http://www.w3.org/2000/svg" xmlns:xlink="http://www.w3.org/1999/xlink">
    <!-- Generator: sketchtool 46.2 (44496) - http://www.bohemiancoding.com/sketch -->
    <title>31CCECF7-83C8-4285-9A87-3476B46B6AC8</title>
    <desc>Created with sketchtool.</desc>
    <defs></defs>
    <g id="Page-1" stroke="none" stroke-width="1" fill="none" fill-rule="evenodd">
        <g id="2.Catalog-menu---Desktop" transform="translate(-20.000000, -462.000000)" fill="#5ACF3C">
            <path d="M34.1685919,472.059254 C34.2102846,474.288549 32.3582932,476.224376 30.1413796,476.26858 C27.7238255,476.316819 25.8747677,474.503471 25.823563,472.034148 C25.777781,469.833546 27.7029347,467.87611 29.9418947,467.846431 C32.2447717,467.816036 34.1242323,469.689368 34.1685919,472.059254 Z M20,471.688739 C20.2130861,471.361379 20.5093799,471.223477 20.9005267,471.237554 C21.4027948,471.255666 21.9063074,471.238271 22.4091978,471.243024 C22.9600926,471.248224 23.3188809,471.569935 23.326526,472.05582 C23.3344379,472.550581 23.0040077,472.875341 22.4380893,472.893453 C21.891195,472.911027 21.3387,472.945547 20.7982951,472.885025 C20.5212921,472.854001 20.2654465,472.631637 20,472.495707 C20,472.226718 20,471.957728 20,471.688739 Z M29.4230829,482 C28.9684636,481.158601 29.14848,480.260894 29.2355102,479.385692 C29.2748916,478.989829 29.6368802,478.793198 30.0229599,478.804047 C30.3853041,478.814269 30.727202,478.997719 30.7655166,479.385782 C30.8522801,480.262597 31.0278517,481.157794 30.578744,482 L29.4230829,482 Z M38.275527,472.898268 C37.9800333,472.898268 37.6832062,472.91638 37.3894016,472.894233 C36.8928229,472.856754 36.6017741,472.52778 36.6090637,472.047544 C36.6159087,471.589903 36.9504282,471.253756 37.4350947,471.2447 C38.0111473,471.233941 38.5877333,471.232596 39.163697,471.245328 C39.6475634,471.255998 39.9867055,471.594566 39.9995955,472.047903 C40.0127523,472.509668 39.704013,472.850029 39.2057453,472.886612 C38.8972726,472.909296 38.5856886,472.890826 38.275527,472.890826 C38.275527,472.893336 38.275527,472.895757 38.275527,472.898268 Z M24.7880995,467.691745 C24.5057626,467.531786 24.2928543,467.457993 24.1419961,467.316773 C23.7205354,466.922256 23.3185431,466.50577 22.920729,466.086505 C22.5813202,465.728749 22.572875,465.261156 22.8790363,464.927699 C23.1785303,464.601774 23.7161794,464.582765 24.071323,464.917746 C24.5021179,465.3241 24.9158445,465.749551 25.3252153,466.178051 C25.587817,466.452959 25.654312,466.813494 25.4606943,467.12059 C25.3146365,467.35219 25.0296327,467.494665 24.7880995,467.691745 Z M35.1744971,467.674583 C34.957944,467.495167 34.6923197,467.355024 34.5459952,467.134273 C34.3526442,466.842599 34.3966482,466.484753 34.6388926,466.222847 C35.0725322,465.754178 35.5242179,465.300572 35.9927051,464.867499 C36.3063338,464.577529 36.7774879,464.619132 37.0759152,464.912689 C37.4005671,465.23207 37.4382594,465.68971 37.123564,466.034375 C36.7029033,466.495064 36.2628631,466.939256 35.8078883,467.365335 C35.6689422,467.495526 35.4535448,467.542778 35.1744971,467.674583 Z M25.6229402,477.377901 C25.4584808,477.675403 25.3786513,477.904762 25.2299266,478.071804 C24.8847395,478.459687 24.5142167,478.825961 24.1390714,479.185151 C23.7348567,479.571958 23.2696586,479.579848 22.9149596,479.229714 C22.5711059,478.890339 22.5806179,478.391364 22.9633195,477.996577 C23.3456656,477.602328 23.7429463,477.222336 24.1429828,476.846199 C24.4034511,476.601239 24.7338813,476.502161 25.0323085,476.7074 C25.2633518,476.866283 25.4182993,477.137783 25.6229402,477.377901 Z M30.8343762,463.680252 C30.8343762,463.963139 30.8533113,464.24764 30.8301981,464.528644 C30.7890387,465.029323 30.4613644,465.332474 29.9979443,465.331309 C29.5353242,465.330053 29.1965377,465.02493 29.1722689,464.523713 C29.1448886,463.959194 29.1477333,463.391626 29.1692464,462.826569 C29.1880925,462.329028 29.5254567,462.007586 29.9795426,462.000144 C30.4444739,461.992522 30.7803268,462.288411 30.8277089,462.787386 C30.8557115,463.082467 30.832865,463.38248 30.832865,463.680252 C30.8333984,463.680252 30.8338428,463.680252 30.8343762,463.680252 Z M37.3998203,478.72006 C37.2459396,478.919112 37.1160611,479.230153 36.8903516,479.338915 C36.6652643,479.447407 36.2528711,479.466685 36.0820111,479.3269 C35.5467622,478.888895 35.0611178,478.379967 34.607832,477.853376 C34.355809,477.560715 34.4582183,477.109261 34.7452668,476.843948 C35.0434273,476.568324 35.4179504,476.497848 35.715222,476.747381 C36.2352695,477.18404 36.7038456,477.684988 37.1749998,478.177418 C37.2777647,478.284835 37.3003446,478.470168 37.3998203,478.72006 Z" id="Fill-18"></path>
        </g>
    </g>
</svg>