<?xml version="1.0" encoding="UTF-8" standalone="no"?>
<svg width="29px" height="21px" viewBox="0 0 29 21" version="1.1" xmlns="http://www.w3.org/2000/svg" xmlns:xlink="http://www.w3.org/1999/xlink">
    <!-- Generator: sketchtool 46.2 (44496) - http://www.bohemiancoding.com/sketch -->
    <title>AD118840-605A-4994-99AB-7CE599791E00</title>
    <desc>Created with sketchtool.</desc>
    <defs></defs>
    <g id="Page-1" stroke="none" stroke-width="1" fill="none" fill-rule="evenodd">
        <g id="1.Catalog-categories---Large-desktop" transform="translate(-1286.000000, -561.000000)" fill="#5ACF3C">
            <path d="M1306.45134,582 L1315,582 L1315,572.295749 L1306.45134,572.295749 L1306.45134,582 Z M1306.45134,570.704251 L1315,570.704251 L1315,561 L1306.45134,561 L1306.45134,570.704251 Z M1296.22567,582 L1304.77433,582 L1304.77433,572.295749 L1296.22567,572.295749 L1296.22567,582 Z M1296.22567,570.704251 L1304.77433,570.704251 L1304.77433,561 L1296.22567,561 L1296.22567,570.704251 Z M1286,582 L1294.54866,582 L1294.54866,572.295749 L1286,572.295749 L1286,582 Z M1286,570.704251 L1294.54866,570.704251 L1294.54866,561 L1286,561 L1286,570.704251 Z" id="Fill-6"></path>
        </g>
    </g>
</svg>