<?xml version="1.0" encoding="UTF-8" standalone="no"?>
<svg width="22px" height="22px" viewBox="0 0 22 22" version="1.1" xmlns="http://www.w3.org/2000/svg" xmlns:xlink="http://www.w3.org/1999/xlink">
    <!-- Generator: sketchtool 46.2 (44496) - http://www.bohemiancoding.com/sketch -->
    <title>114ABD1B-E5AF-4E56-A79F-CE16CEF6C394</title>
    <desc>Created with sketchtool.</desc>
    <defs></defs>
    <g id="Page-1" stroke="none" stroke-width="1" fill="none" fill-rule="evenodd">
        <g id="5.Filters---Mobile" transform="translate(-255.000000, -24.000000)" fill="#94949F">
            <path d="M276.483036,42.9641825 L273.964564,45.4802061 C273.630058,45.8147543 273.168384,46 272.703946,46 C272.242272,46 271.777834,45.8147543 271.446092,45.4802061 L266,40.0361945 L260.556673,45.4802061 C260.224931,45.8147543 259.760493,46 259.298819,46 C258.83438,46 258.372707,45.8147543 258.038201,45.4802061 L255.519729,42.9641825 C255.185222,42.6296343 255,42.1679025 255,41.7034058 C255,41.241674 255.185222,40.7771773 255.519729,40.445394 L260.965821,34.9986176 L255.519729,29.5518411 C255.185222,29.2200578 255,28.7555611 255,28.2938293 C255,27.8293327 255.185222,27.3676009 255.519729,27.0330527 L258.038201,24.517029 C258.372707,24.1824808 258.83438,24 259.298819,24 C259.760493,24 260.224931,24.1824808 260.556673,24.517029 L266,29.9610406 L271.446092,24.517029 C271.777834,24.1824808 272.242272,24 272.703946,24 C273.168384,24 273.630058,24.1824808 273.964564,24.517029 L276.483036,27.0330527 C276.817542,27.3676009 277,27.8293327 277,28.2938293 C277,28.7555611 276.817542,29.2200578 276.483036,29.5518411 L271.036944,34.9986176 L276.483036,40.445394 C276.817542,40.7771773 277,41.241674 277,41.7034058 C277,42.1679025 276.817542,42.6296343 276.483036,42.9641825" id="Fill-1"></path>
        </g>
    </g>
</svg>