<?xml version="1.0" encoding="UTF-8" standalone="no"?>
<svg width="20px" height="20px" viewBox="0 0 20 20" version="1.1" xmlns="http://www.w3.org/2000/svg" xmlns:xlink="http://www.w3.org/1999/xlink">
    <!-- Generator: sketchtool 46.2 (44496) - http://www.bohemiancoding.com/sketch -->
    <title>1C1380D6-125C-4506-BD6F-B50847476D47</title>
    <desc>Created with sketchtool.</desc>
    <defs></defs>
    <g id="Symbols" stroke="none" stroke-width="1" fill="none" fill-rule="evenodd">
        <g id="show-filter" transform="translate(-175.000000, -14.000000)" fill="#FFFFFF">
            <path d="M190.024038,27.6057692 L186.418269,24 L190.024038,20.3942308 L188.605769,18.9759615 L185,22.5817308 L181.394231,18.9759615 L179.975962,20.3942308 L183.581731,24 L179.975962,27.6057692 L181.394231,29.0240385 L185,25.4182692 L188.605769,29.0240385 L190.024038,27.6057692 Z M185,14 C186.826923,14 188.517628,14.458734 190.072115,15.3721955 C191.578526,16.2355769 192.764423,17.4234776 193.629808,18.9278846 C194.543269,20.4823718 195,22.1730769 195,24 C195,25.8269231 194.543269,27.5176282 193.629808,29.0721154 C192.764423,30.5785256 191.578526,31.7644231 190.072115,32.6318109 C188.517628,33.5452724 186.826923,34 185,34 C183.173077,34 181.482372,33.5452724 179.927885,32.6318109 C178.421474,31.7483974 177.235577,30.5564904 176.370192,29.0500801 C175.456731,27.4935897 175,25.8108974 175,24 C175,22.1911058 175.456731,20.5064103 176.370192,18.9539263 C177.251603,17.447516 178.445513,16.2516026 179.951923,15.3721955 C181.50641,14.458734 183.189103,14 185,14 L185,14 Z" id="Fill-1"></path>
        </g>
    </g>
</svg>