<?xml version="1.0" encoding="UTF-8" standalone="no"?>
<svg width="11px" height="13px" viewBox="0 0 11 13" version="1.1" xmlns="http://www.w3.org/2000/svg" xmlns:xlink="http://www.w3.org/1999/xlink">
    <!-- Generator: sketchtool 46.2 (44496) - http://www.bohemiancoding.com/sketch -->
    <title>AE5E3B0D-4110-404B-9580-40D15153F538</title>
    <desc>Created with sketchtool.</desc>
    <defs></defs>
    <g id="Page-1" stroke="none" stroke-width="1" fill="none" fill-rule="evenodd">
        <g id="2.Catalog-menu---Desktop" transform="translate(-96.000000, -560.000000)" fill="#7BD53B">
            <g id="Group-5" transform="translate(96.000000, 556.000000)">
                <path d="M10.021,7.43 L6.859,7.43 L6.859,4.268 C6.953,4.328 7.034,4.389 7.101,4.455 L9.834,7.189 C9.9,7.256 9.961,7.336 10.021,7.43 L10.021,7.43 Z M7.717,12.789 C7.717,12.668 7.623,12.575 7.502,12.575 L2.787,12.575 C2.666,12.575 2.572,12.668 2.572,12.789 L2.572,13.217 C2.572,13.338 2.666,13.432 2.787,13.432 L7.502,13.432 C7.623,13.432 7.717,13.338 7.717,13.217 L7.717,12.789 Z M7.717,11.075 C7.717,10.953 7.623,10.86 7.502,10.86 L2.787,10.86 C2.666,10.86 2.572,10.953 2.572,11.075 L2.572,11.502 C2.572,11.623 2.666,11.717 2.787,11.717 L7.502,11.717 C7.623,11.717 7.717,11.623 7.717,11.502 L7.717,11.075 Z M7.717,9.36 C7.717,9.239 7.623,9.145 7.502,9.145 L2.787,9.145 C2.666,9.145 2.572,9.239 2.572,9.36 L2.572,9.787 C2.572,9.909 2.666,10.002 2.787,10.002 L7.502,10.002 C7.623,10.002 7.717,9.909 7.717,9.787 L7.717,9.36 Z M10.289,8.287 L10.289,15.362 C10.289,15.716 10.001,16.004 9.646,16.004 L0.643,16.004 C0.288,16.004 0,15.716 0,15.362 L0,4.643 C0,4.288 0.288,4 0.643,4 L6.002,4 L6.002,7.645 C6.002,7.999 6.29,8.287 6.645,8.287 L10.289,8.287 Z" id="Fill-1"></path>
            </g>
        </g>
    </g>
</svg>