<?xml version="1.0" encoding="UTF-8" standalone="no"?>
<svg width="21px" height="19px" viewBox="0 0 21 19" version="1.1" xmlns="http://www.w3.org/2000/svg" xmlns:xlink="http://www.w3.org/1999/xlink">
    <!-- Generator: sketchtool 46.2 (44496) - http://www.bohemiancoding.com/sketch -->
    <title>3B30A3D8-17E5-44DD-AA2C-FCA01E200075</title>
    <desc>Created with sketchtool.</desc>
    <defs></defs>
    <g id="Page-1" stroke="none" stroke-width="1" fill="none" fill-rule="evenodd">
        <g id="3.Сatalog-categories---Tablet" transform="translate(-26.000000, -865.000000)" fill="#FFFFFF">
            <path d="M43.938478,875.364186 L47,875.364186 L47,873.637829 L43.938478,873.637829 L43.938478,875.364186 Z M43.4996598,872.773643 L43.4996598,876.228372 C43.4996598,876.699746 43.103703,877.090543 42.6261055,877.090543 L39.1257654,877.090543 C38.6461269,877.090543 38.2501701,876.699746 38.2501701,876.228372 L38.2501701,872.773643 C38.2501701,872.300254 38.6461269,871.909457 39.1257654,871.909457 L42.6261055,871.909457 C43.103703,871.909457 43.4996598,872.300254 43.4996598,872.773643 L43.4996598,872.773643 Z M36.9377976,882.273643 L47,882.273643 L47,880.547286 L36.9377976,880.547286 L36.9377976,882.273643 Z M35.1866071,868.454729 L47,868.454729 L47,866.728372 L35.1866071,866.728372 L35.1866071,868.454729 Z M36.5010205,879.681086 L36.5010205,883.135814 C36.5010205,883.609203 36.1030226,884 35.6254252,884 L32.125085,884 C31.6474876,884 31.2494897,883.609203 31.2494897,883.135814 L31.2494897,879.681086 C31.2494897,879.209712 31.6474876,878.818914 32.125085,878.818914 L35.6254252,878.818914 C36.1030226,878.818914 36.5010205,879.209712 36.5010205,879.681086 L36.5010205,879.681086 Z M34.7498299,865.864186 L34.7498299,869.318914 C34.7498299,869.790288 34.3538731,870.1831 33.8742346,870.1831 L30.3759355,870.1831 C29.896297,870.1831 29.5003402,869.790288 29.5003402,869.318914 L29.5003402,865.864186 C29.5003402,865.392812 29.896297,865 30.3759355,865 L33.8742346,865 C34.3538731,865 34.7498299,865.392812 34.7498299,865.864186 L34.7498299,865.864186 Z M26,882.273643 L30.8127126,882.273643 L30.8127126,880.547286 L26,880.547286 L26,882.273643 Z M26,875.364186 L37.8133929,875.364186 L37.8133929,873.637829 L26,873.637829 L26,875.364186 Z M26,868.454729 L29.061522,868.454729 L29.061522,866.728372 L26,866.728372 L26,868.454729 Z" id="Page-1"></path>
        </g>
    </g>
</svg>