<?xml version="1.0" encoding="UTF-8" standalone="no"?>
<svg width="26px" height="21px" viewBox="0 0 26 21" version="1.1" xmlns="http://www.w3.org/2000/svg" xmlns:xlink="http://www.w3.org/1999/xlink">
    <!-- Generator: sketchtool 46.2 (44496) - http://www.bohemiancoding.com/sketch -->
    <title>F32A416C-6471-4738-9CEC-FFB5CE06620C</title>
    <desc>Created with sketchtool.</desc>
    <defs></defs>
    <g id="Page-1" stroke="none" stroke-width="1" fill="none" fill-rule="evenodd">
        <g id="1.Catalog-categories---Large-desktop" transform="translate(-1334.000000, -561.000000)" fill="#D8D8DA">
            <path d="M1341.66432,582 L1360,582 L1360,576.010309 L1341.66432,576.010309 L1341.66432,582 Z M1341.66432,574.530928 L1360,574.530928 L1360,568.469072 L1341.66432,568.469072 L1341.66432,574.530928 Z M1341.66432,566.989691 L1360,566.989691 L1360,561 L1341.66432,561 L1341.66432,566.989691 Z M1334,582 L1340.16079,582 L1340.16079,576.010309 L1334,576.010309 L1334,582 Z M1334,574.530928 L1340.16079,574.530928 L1340.16079,568.469072 L1334,568.469072 L1334,574.530928 Z M1334,566.989691 L1340.16079,566.989691 L1340.16079,561 L1334,561 L1334,566.989691 Z" id="Fill-4"></path>
        </g>
    </g>
</svg>