<svg xmlns="http://www.w3.org/2000/svg" width="58" height="30" viewBox="0 0 58 30">
    <g fill="none" fill-rule="evenodd" stroke="#5ACF3C">
        <path stroke-width="2" d="M51 24.999a4 4 0 1 1-7.998 0A4 4 0 0 1 51 25zM24 24.999a4 4 0 1 1-7.998 0A4 4 0 0 1 24 25z"/>
        <path stroke-linecap="round" stroke-width="1.7" d="M26.49 25H40M7.477 25H13M53.32 25h1.608C56.072 25 57 24.04 57 22.857v-6.41c0-.404-.11-.8-.317-1.142l-5.639-9.271A2.12 2.12 0 0 0 49.234 5h-6.202M43 5V3.478C43 2.111 41.982 1 40.725 1H11"/>
        <path stroke-linecap="round" stroke-width="1.5" d="M1 7h21M3 19h13"/>
        <path stroke-linecap="round" stroke-width="1.7" d="M6 13h7"/>
        <path stroke-linecap="round" stroke-width="1.5" d="M43.13 8h6.184c.044 0 .084.024.107.06l3.557 5.72c.057.094-.004.22-.108.22h-9.74c-.071 0-.13-.063-.13-.141V8.14c0-.078.059-.141.13-.141z"/>
    </g>
</svg>
