<svg xmlns="http://www.w3.org/2000/svg" width="53" height="37" viewBox="0 0 53 37">
    <g fill="none" fill-rule="evenodd" stroke="#5ACF3C" stroke-linecap="round" stroke-width="1.575">
        <path d="M49.295 35.382H2.943a2.153 2.153 0 0 1-2.147-2.145V2.94c0-1.18.966-2.145 2.147-2.145h46.352c1.18 0 2.147.965 2.147 2.145v30.297c0 1.18-.966 2.145-2.147 2.145zM6.978 23.824h15.9M6.978 27.97h12.004M.795 5.47h50.647M.795 13.147h50.647"/>
        <path stroke-linejoin="round" d="M42.181 22.387c-1.09 0-2.06.474-2.741 1.22a3.699 3.699 0 0 0-2.741-1.22 3.721 3.721 0 0 0 0 7.441c1.09 0 2.06-.474 2.74-1.22a3.699 3.699 0 0 0 2.742 1.22 3.722 3.722 0 0 0 3.725-3.72 3.724 3.724 0 0 0-3.725-3.721z"/>
    </g>
</svg>
