<svg xmlns="http://www.w3.org/2000/svg" width="28" height="23" viewBox="0 0 28 23">
    <path fill="#FFF" fill-rule="evenodd" d="M18.543 19.791a.704.704 0 0 1-.701.711h-.366a.704.704 0 0 1-.7-.71v-5.857c0-.394.312-.71.7-.71h.366c.388 0 .7.316.7.71v5.856zm-3.71 0a.704.704 0 0 1-.702.711h-.365a.704.704 0 0 1-.7-.71v-5.857c0-.394.311-.71.7-.71h.365c.389 0 .701.316.701.71v5.856zm-3.712 0a.704.704 0 0 1-.7.711h-.366a.704.704 0 0 1-.7-.71v-5.857c0-.394.312-.71.7-.71h.365c.39 0 .701.316.701.71v5.856zM26.28 7.768h-2.997L16.526.383a.2.2 0 0 0-.047-.036 1.238 1.238 0 0 0-.86-.341c-.7 0-1.272.58-1.272 1.29 0 .419.2.79.501 1.029l5.67 5.443H7.464l5.676-5.45c.3-.239.5-.61.5-1.027C13.64.579 13.07 0 12.368 0c-.33 0-.636.126-.86.34a.186.186 0 0 0-.047.037l-6.76 7.391H1.72A1.73 1.73 0 0 0 0 9.513v1.165a1.73 1.73 0 0 0 1.72 1.745h.707l1.019 8.695.011-.03A2.083 2.083 0 0 0 5.525 23h16.962c1.149 0 2.073-.944 2.073-2.103v-.03l.984-8.438h.736A1.73 1.73 0 0 0 28 10.684V9.52c0-.968-.772-1.75-1.72-1.75z"/>
</svg>
