<svg xmlns="http://www.w3.org/2000/svg" width="11" height="13" viewBox="0 0 11 13">
    <path fill="#424242" fill-rule="evenodd" d="M10.021 3.43H6.859V.268c.094.06.175.121.242.187l2.733 2.734c.066.067.127.147.187.241zM7.717 8.789a.211.211 0 0 0-.215-.214H2.787a.211.211 0 0 0-.215.214v.428c0 .121.094.215.215.215h4.715a.212.212 0 0 0 .215-.215v-.428zm0-1.714a.212.212 0 0 0-.215-.215H2.787a.212.212 0 0 0-.215.215v.427c0 .121.094.215.215.215h4.715a.212.212 0 0 0 .215-.215v-.427zm0-1.715a.212.212 0 0 0-.215-.215H2.787a.212.212 0 0 0-.215.215v.427c0 .122.094.215.215.215h4.715a.212.212 0 0 0 .215-.215V5.36zm2.572-1.073v7.075a.643.643 0 0 1-.643.642H.643A.643.643 0 0 1 0 11.362V.643C0 .288.288 0 .643 0h5.359v3.645c0 .354.288.642.643.642h3.644z"/>
</svg>
