<svg xmlns="http://www.w3.org/2000/svg" width="136" height="52" viewBox="0 0 136 52">
    <path fill="#737680" fill-rule="evenodd" d="M72.162 26.378l.31-.022.696 2.814-.875.063-.697-2.814.447-.032a14.045 14.045 0 0 1 .001 0l.066-.005-.093-.44.118-.01.093.44-.066.006zm33.925 11.035v.006l-.013.002v-.006l.013-.002zm-30.7-16.993l.06-.015-.06.015zm.42-.012l.012-.003c-.004 0-.008.002-.011.003zm-.842.017zM78.527 1.68c-2.48 1.767-5.633 5.45-6.098 10.217-.176 1.797-.483 3.58-.536 5.4-.007.245-.014.666-.014.666s-.147.027-.318.056c-.11.019-.229.038-.327.051-2.757.382-5.515.761-8.245 1.326-2.737.566-5.414 1.322-7.906 2.634-3.289 1.732-5.908 4.178-7.577 7.564-1.859 3.77-2.072 7.688-.776 11.674 1.036 3.183 2.822 5.84 5.655 7.659 5.016 3.219 11.654 4.121 16.664.378 2.24-1.673 3.756-3.916 4.835-6.478.973-2.312 1.553-4.757 1.85-7.25.437-3.675.26-7.455-.177-11.067-.04-.328-.035-.684-.035-.684s.196-.06.43-.129l.186-.054c2.177-.626 11.273-1.122 15.613-8.845.903-1.607 1.642-3.368 1.642-5.356 0-5.222-6.637-9.284-9.94-9.435-3.413-.12-4.341 1.257-4.926 1.673zM75.92 14.16c.061-.665.07-1.396.294-2.075.523-1.588 1.378-3.013 3.329-4.545 1.442-1.133 4.237-.976 5.275.569 2.14 3.184.148 5.948-1.135 6.826-1.75 1.198-2.18 1.38-4.794 1.998a38.2 38.2 0 0 1-3.064.602s-.077-1.51.095-3.376M62.26 43.071c-2.384-.585-3.84-2.236-4.39-4.629-.57-2.47.34-4.587 1.85-6.45 1.969-2.433 4.577-4.01 7.332-5.354 1.455-.71 2.971-1.271 4.504-1.784l.362-.119.25-.08s.004.359.004.664v.468a273.67 273.67 0 0 1-.016.428c-.123 3.11-.419 6.118-1.26 9.026-.124.432-.26.862-.41 1.29-.572 1.626-1.328 3.16-2.461 4.465-1.22 1.405-2.682 2.247-4.393 2.247-.44 0-.897-.056-1.371-.172m13.126-22.664l.051-.002v.001l.05-.001h.037v.036l-.138.004v-.037zm1.263-3.401l.006-.002-.006.002zm-1.684 3.439v-.037l.14-.003v.037l-.14.003zm.291-.037c.003 0 .005-.002.007-.003-.014.038-.028.066-.04.074-.03.019-.121.054-.258.101v-.03l.07-.034a3.094 3.094 0 0 1 .066-.032l.03-.015a3.83 3.83 0 0 1 .051-.024l.006-.003.068-.034zM42.18 52h-4.064V33.793c0-2.289-.668-4.265-1.954-5.878-1.286-1.613-3.035-2.445-5.144-2.445-2.16 0-4.012.728-5.607 2.133-1.543 1.404-2.315 3.173-2.315 5.306V52H18.98V32.909c0-2.133-.771-3.902-2.366-5.306-1.543-1.405-3.395-2.133-5.555-2.133-2.109 0-3.806.832-5.092 2.445-1.286 1.613-1.903 3.537-1.903 5.878V52H0V34.261c0-3.693 1.029-6.71 3.138-8.947 1.954-2.133 4.526-3.33 7.715-3.59 4.27-.363 7.664 1.51 10.185 5.515 2.52-4.006 5.915-5.878 10.185-5.514 3.189.26 5.76 1.456 7.767 3.589 2.109 2.237 3.189 5.254 3.189 8.947V52zm42.894-1.526V23.806h2.6v26.668h-2.6zm5.475-.15h2.565V30.606h-2.565v19.716zm0-21.918v-4.6h2.565v4.6h-2.565zm22.747 21.942h-2.633V38.83c0-1.66-.616-3.079-1.813-4.29-1.197-1.21-2.565-1.798-4.173-1.798-1.607 0-3.044.588-4.24 1.799-1.198 1.21-1.78 2.628-1.78 4.289v11.518h-2.633V39.106c0-2.56.82-4.67 2.463-6.364 1.641-1.695 3.694-2.56 6.19-2.56 2.463 0 4.515.865 6.157 2.56 1.642 1.695 2.462 3.805 2.462 6.364v11.242zm19.996-11.388c-.377-1.833-1.232-3.32-2.566-4.462-1.333-1.141-2.941-1.73-4.822-1.764-1.881-.034-3.523.554-4.925 1.695-1.403 1.142-2.258 2.664-2.634 4.531h14.947zm2.23 5.042c-.718 2.11-1.95 3.805-3.694 5.05-1.744 1.246-3.66 1.868-5.78 1.903-2.668.035-5.028-.934-7.08-2.94-2.052-2.04-3.112-4.428-3.147-7.23-.068-2.94.958-5.5 3.079-7.61 2.154-2.144 4.651-3.147 7.558-2.974 2.6.173 4.857 1.245 6.773 3.252 1.846 1.971 2.77 4.185 2.77 6.641v1.418h-17.512c.205 1.972 1.026 3.632 2.497 4.912 1.47 1.28 3.181 1.937 5.165 1.902 3.078-.034 5.267-1.487 6.6-4.324h2.771z"/>
</svg>
