<?xml version="1.0" encoding="UTF-8" standalone="no"?>
<svg width="69px" height="35px" viewBox="0 0 69 35" version="1.1" xmlns="http://www.w3.org/2000/svg" xmlns:xlink="http://www.w3.org/1999/xlink">
    <!-- Generator: Sketch 46.2 (44496) - http://www.bohemiancoding.com/sketch -->
    <title>Group 10</title>
    <desc>Created with Sketch.</desc>
    <defs>
        <linearGradient x1="53.4030569%" y1="37.9578779%" x2="8.30645538%" y2="89.4885895%" id="linearGradient-1">
            <stop stop-color="#56CE34" offset="0%"></stop>
            <stop stop-color="#CFF547" offset="100%"></stop>
        </linearGradient>
        <linearGradient x1="64.4005485%" y1="0%" x2="50%" y2="34.0892881%" id="linearGradient-2">
            <stop stop-color="#000000" offset="0%"></stop>
            <stop stop-color="#A1E640" offset="100%"></stop>
        </linearGradient>
        <linearGradient x1="35.0680721%" y1="100%" x2="35.0680709%" y2="50%" id="linearGradient-3">
            <stop stop-color="#000000" offset="0%"></stop>
            <stop stop-color="#71D738" offset="100%"></stop>
        </linearGradient>
        <linearGradient x1="50%" y1="0%" x2="50%" y2="65.3538591%" id="linearGradient-4">
            <stop stop-color="#FFFFFF" stop-opacity="0.535297781" offset="0%"></stop>
            <stop stop-color="#FFFFFF" stop-opacity="0" offset="100%"></stop>
        </linearGradient>
    </defs>
    <g id="Page-1" stroke="none" stroke-width="1" fill="none" fill-rule="evenodd">
        <g id="Group-10">
            <path d="M18.9138882,33.4285086 L17.0916647,33.4285086 L17.0916647,25.3648398 C17.0916647,24.3511248 16.7918659,23.4756117 16.2151937,22.7614012 C15.6385215,22.0471906 14.8543079,21.6785349 13.9086565,21.6785349 C12.9398775,21.6785349 12.1095099,22.0010898 11.3944263,22.623149 C10.7024702,23.2452082 10.3564669,24.0285196 10.3564669,24.9731841 L10.3564669,33.4285086 L8.51121689,33.4285086 L8.51121689,24.9731841 C8.51121689,24.0285196 8.16526407,23.2452082 7.45023096,22.623149 C6.75822434,22.0010898 5.92785679,21.6785349 4.95912831,21.6785349 C4.01342632,21.6785349 3.25223924,22.0471906 2.67561755,22.7614012 C2.09899586,23.4756117 1.82217301,24.328024 1.82217301,25.3648398 L1.82217301,33.4285086 L0,33.4285086 L0,25.5721424 C0,23.9363683 0.461287252,22.600149 1.40698924,21.6094341 C2.28351076,20.66482 3.43675414,20.1349121 4.86687086,20.0197104 C6.78130132,19.8584582 8.303625,20.6878705 9.43384189,22.4618968 C10.5641093,20.6878705 12.0864329,19.8584582 14.0009139,20.0197104 C15.4309296,20.1349121 16.584274,20.66482 17.483822,21.6094341 C18.429524,22.600149 18.9138882,23.9363683 18.9138882,25.5721424 L18.9138882,33.4285086 Z" id="Fill-46" fill="#000000"></path>
            <polygon id="Fill-48" fill="#000000" points="44 31.8113575 45.1656151 31.8113575 45.1656151 20 44 20"></polygon>
            <path d="M47,31.8113575 L48.1502641,31.8113575 L48.1502641,23.0792259 L47,23.0792259 L47,31.8113575 Z M47,22.0375175 L48.1502641,22.0375175 L48.1502641,20 L47,20 L47,22.0375175 Z" id="Fill-50" fill="#000000"></path>
            <path d="M57.7452831,31.9313136 L56.5643171,31.9313136 L56.5643171,26.8299035 C56.5643171,26.0946096 56.2882517,25.4664978 55.7514719,24.9302851 C55.2146416,24.3941228 54.6011573,24.1336579 53.8803171,24.1336579 C53.1594768,24.1336579 52.5152906,24.3941228 51.9785108,24.9302851 C51.4416805,25.4664978 51.1809661,26.0946096 51.1809661,26.8299035 L51.1809661,31.9313136 L50,31.9313136 L50,26.9525197 C50,25.8188618 50.3681209,24.8843355 51.1043121,24.1336579 C51.8404528,23.3829803 52.7607045,23 53.8803171,23 C54.9845786,23 55.9048303,23.3829803 56.6410215,24.1336579 C57.3772127,24.8843355 57.7452831,25.8188618 57.7452831,26.9525197 L57.7452831,31.9313136 Z" id="Fill-51" fill="#000000"></path>
            <path d="M66.9000819,26.9456351 C66.7313725,26.1336745 66.3480016,25.4749465 65.7498178,24.9694004 C65.151634,24.4638039 64.4307938,24.2033895 63.5872971,24.1880561 C62.7437499,24.1727228 62.0075082,24.4331877 61.3787235,24.9387338 C60.7498882,25.4442798 60.3664668,26.1183412 60.1977574,26.9456351 L66.9000819,26.9456351 Z M67.8356845,29.1209509 C67.5136167,30.0554772 66.9614354,30.8061044 66.1792417,31.3576504 C65.397048,31.909146 64.5381498,32.1848434 63.5872971,32.2001767 C62.3909296,32.2155101 61.3326705,31.7866307 60.4124188,30.8980539 C59.4922177,29.9941943 59.0167913,28.9371526 59.0014403,27.6962623 C58.9707384,26.394089 59.4308642,25.2604311 60.3818178,24.3259048 C61.3480215,23.3760956 62.467634,22.9318829 63.7713071,23.0084487 C64.9369221,23.0850649 65.9491788,23.5599443 66.8080769,24.448521 C67.6362731,25.321714 68.0503965,26.3021395 68.0503965,27.3898982 L68.0503965,28.0179596 L60.1977574,28.0179596 C60.2897624,28.8912031 60.6578832,29.6265474 61.31737,30.1933763 C61.9769072,30.7601548 62.7437499,31.051236 63.6332491,31.0359026 C65.0136266,31.0205693 65.9951812,30.3771745 66.593365,29.1209509 L67.8356845,29.1209509 Z" id="Fill-52" fill="#000000"></path>
            <path d="M39.6240238,9.2516938 C39.5130517,10.4327254 39.4508429,10.4841503 39.417374,11.6800523 C39.4129068,11.8413092 39.4087232,12.1177924 39.4087232,12.1177924 C39.4087232,12.1177924 39.3159746,12.1354276 39.2074844,12.1544825 C39.1384193,12.166588 39.0631852,12.1792165 39.0012111,12.1881836 C37.2593397,12.4389613 35.5168301,12.6879456 33.7925441,13.0590309 C32.0632235,13.4312371 30.3722645,13.9275618 28.7978794,14.7898157 C26.7201137,15.9278056 25.0651763,17.5345467 24.0106935,19.759265 C22.8365878,22.2361808 22.7018614,24.8103889 23.5209983,27.429432 C24.1749889,29.5206165 25.3037131,31.2669441 27.0934478,32.4614263 C30.2622143,34.5762986 34.4558946,35.1694671 37.6209739,32.710037 C39.0353181,31.6111284 39.9936488,30.1370245 40.675152,28.4538397 C41.2901428,26.9349755 41.6562443,25.3284586 41.843585,23.6901088 C42.119916,21.2755885 42.0080931,18.7921716 41.7319747,16.4192732 C41.7068731,16.2037658 41.7099221,15.9698012 41.7099221,15.9698012 C41.7099221,15.9698012 41.8339414,15.930421 41.9812896,15.885287 C42.0195803,15.8736299 42.0592891,15.8615244 42.0989271,15.8497926 C43.4747679,15.4381315 49.4431699,13.1502324 51.2335011,11.6800523 C53.0238322,10.2098722 56.2704998,6.51643752 53.0238322,2.30118549 C51.000861,-0.325302498 47.5682393,0.169320855 46.4588173,0.315471874 C45.3493954,0.461622892 43.9625486,1.1571764 43.6082889,1.41953654 C42.0412074,2.58024291 39.8351013,5.23946401 39.6240238,9.2516938 Z M42.1304105,8.16019696 C42.4608449,7.11680914 42.9397704,6.16014672 44.203207,4.71760476 C45.4666436,3.2750628 48.9125053,1.94547951 50.6233037,3.73148699 C53.6815057,6.9241317 49.3681318,9.52281078 47.7607927,10.1597234 C46.1534536,10.7966361 45.4722651,10.9395256 43.8203059,11.345657 C42.7081034,11.6191512 41.8848538,11.7411027 41.8848538,11.7411027 C41.8848538,11.7411027 41.8359977,10.7485281 41.9448425,9.52281078 C41.9834169,9.08671458 41.9890895,8.60608216 42.1304105,8.16019696 Z M33.2641327,28.7374965 C31.7578199,28.3530354 30.8380636,27.2681751 30.4897602,25.696256 L30.4897602,25.696256 C30.1300405,24.0726271 30.704968,22.6825891 31.6587605,21.4577685 L31.6587605,21.4577685 C32.902853,19.860144 34.5504159,18.8240045 36.29094,17.9408275 L36.29094,17.9408275 C37.2102709,17.4743929 38.1681051,17.1054746 39.136363,16.7681651 L39.136363,16.7681651 C39.2154262,16.7405915 39.2972548,16.7130179 39.3653271,16.6903015 L39.3653271,16.6903015 C39.4567283,16.6598136 39.5230989,16.638218 39.5230989,16.638218 L39.5230989,16.638218 C39.5230989,16.638218 39.5253679,16.8733035 39.525297,17.0738659 L39.525297,17.0738659 C39.5252261,17.2003009 39.525297,17.3266612 39.525297,17.3814348 L39.525297,17.3814348 C39.4632519,19.2606985 39.4965081,18.2214953 39.5152989,17.6627004 L39.5152989,17.6627004 C39.4380794,19.7057618 39.2510932,21.6821683 38.7200582,23.593265 L38.7200582,23.593265 C38.6411369,23.8769218 38.554841,24.1591589 38.460107,24.4399761 L38.460107,24.4399761 C38.0992528,25.5091441 37.6211157,26.5171869 36.9056473,27.3743596 L36.9056473,27.3743596 C36.1351537,28.2973651 35.2115683,28.8504062 34.130353,28.850481 L34.130353,28.850481 C33.8520364,28.850481 33.5634382,28.8138656 33.2641327,28.7374965 L33.2641327,28.7374965 Z M42.2812797,11.6420919 C42.278735,11.6429808 42.2760489,11.6434252 42.2735042,11.644166 L42.2735042,11.644166 C42.2760489,11.6434252 42.278735,11.6429808 42.2814211,11.6420919 L42.2814211,11.6420919 L42.2812797,11.6420919 Z" id="Fill-19" fill="url(#linearGradient-1)"></path>
            <path d="M39.4795555,16.6721429 L41.6845164,16 C41.8402642,17.4287754 41.9406699,18.7554351 41.9857334,19.9799791 C42.0307969,21.2045231 41.969105,22.5445301 41.8006576,24 L38.7951398,23.3992844 C39.0576084,22.1211439 39.2336527,20.9813755 39.3232727,19.9799791 C39.4128928,18.9785826 39.464987,17.8759706 39.4795555,16.6721429 Z" id="Path-3" fill-opacity="0.4" fill="url(#linearGradient-2)" opacity="0.597539646"></path>
            <path d="M41.8514378,11.7493824 L39.3355376,12.1059442 C39.4018458,10.5791735 39.5140195,9.32040027 39.6720587,8.32962468 C39.8300978,7.33884909 40.1406732,6.28659664 40.6037849,5.17286734 L43.0239655,6.2639992 C42.4859247,7.08506547 42.1457507,7.87686767 42.0034437,8.63940579 C41.8611367,9.40194391 41.8104681,10.4386028 41.8514378,11.7493824 Z" id="Path-4" fill-opacity="0.4" fill="url(#linearGradient-3)" opacity="0.597539646"></path>
            <path d="M32.71972,14.922418 C29.090533,16.9862925 27.2863055,20.3930436 27.3070373,25.1426713 C27.3242977,29.0969839 28.7619402,31.9359595 31.6199648,33.6595984 C27.0758693,32.1965187 24.7593444,29.357543 24.6703901,25.1426713 C24.5627323,20.0415869 27.2458423,16.6348358 32.71972,14.922418 Z" id="Path-7" fill="url(#linearGradient-4)" opacity="0.651585821"></path>
        </g>
    </g>
</svg>