<?xml version="1.0" encoding="UTF-8" standalone="no"?>
<svg width="33px" height="33px" viewBox="0 0 33 33" version="1.1" xmlns="http://www.w3.org/2000/svg" xmlns:xlink="http://www.w3.org/1999/xlink">
    <!-- Generator: sketchtool 46.2 (44496) - http://www.bohemiancoding.com/sketch -->
    <title>61D46300-FB51-46FE-8BCF-1405A7EC1623</title>
    <desc>Created with sketchtool.</desc>
    <defs></defs>
    <g id="Page-1" stroke="none" stroke-width="1" fill="none" fill-rule="evenodd">
        <g id="1.Zoom-picture-produkt---Large-desktop" transform="translate(-1152.000000, -101.000000)" fill="#FFFFFF">
            <path d="M1184.22455,129.446274 L1180.44685,133.220309 C1179.94509,133.722131 1179.25258,134 1178.55592,134 C1177.86341,134 1177.16675,133.722131 1176.66914,133.220309 L1168.5,125.054292 L1160.33501,133.220309 C1159.8374,133.722131 1159.14074,134 1158.44823,134 C1157.75157,134 1157.05906,133.722131 1156.5573,133.220309 L1152.77959,129.446274 C1152.27783,128.944451 1152,128.251854 1152,127.555109 C1152,126.862511 1152.27783,126.165766 1152.77959,125.668091 L1160.94873,117.497926 L1152.77959,109.327762 C1152.27783,108.830087 1152,108.133342 1152,107.440744 C1152,106.743999 1152.27783,106.051401 1152.77959,105.549579 L1156.5573,101.775544 C1157.05906,101.273721 1157.75157,101 1158.44823,101 C1159.14074,101 1159.8374,101.273721 1160.33501,101.775544 L1168.5,109.941561 L1176.66914,101.775544 C1177.16675,101.273721 1177.86341,101 1178.55592,101 C1179.25258,101 1179.94509,101.273721 1180.44685,101.775544 L1184.22455,105.549579 C1184.72631,106.051401 1185,106.743999 1185,107.440744 C1185,108.133342 1184.72631,108.830087 1184.22455,109.327762 L1176.05542,117.497926 L1184.22455,125.668091 C1184.72631,126.165766 1185,126.862511 1185,127.555109 C1185,128.251854 1184.72631,128.944451 1184.22455,129.446274" id="Fill-1"></path>
        </g>
    </g>
</svg>