<?xml version="1.0" encoding="UTF-8" standalone="no"?>
<svg width="26px" height="26px" viewBox="0 0 26 26" version="1.1" xmlns="http://www.w3.org/2000/svg" xmlns:xlink="http://www.w3.org/1999/xlink">
    <!-- Generator: sketchtool 46.2 (44496) - http://www.bohemiancoding.com/sketch -->
    <title>D4D30927-DA92-4E15-8038-EE1105118486</title>
    <desc>Created with sketchtool.</desc>
    <defs></defs>
    <g id="Page-1" stroke="none" stroke-width="1" fill="none" fill-rule="evenodd">
        <g id="1.FAQ---Large-desktop" transform="translate(-95.000000, -273.000000)" fill="#5ACF3C">
            <path d="M114.525391,274.739258 C116.522796,275.898769 118.101231,277.477204 119.260742,279.474609 C120.420253,281.472015 121,283.647124 121,286 C121,288.352876 120.420253,290.527985 119.260742,292.525391 C118.101231,294.522796 116.522796,296.101231 114.525391,297.260742 C112.527985,298.420253 110.352876,299 108,299 C105.647124,299 103.472015,298.420253 101.474609,297.260742 C99.4772036,296.101231 97.8987688,294.522796 96.7392578,292.525391 C95.5797468,290.527985 95,288.352876 95,286 C95,283.647124 95.5797468,281.472015 96.7392578,279.474609 C97.8987688,277.477204 99.4772036,275.898769 101.474609,274.739258 C103.472015,273.579747 105.647124,273 108,273 C110.352876,273 112.527985,273.579747 114.525391,274.739258 Z M107.383569,290 L107.283373,290 C107.032882,289.96468 106.828317,289.845476 106.669673,289.642384 C106.511029,289.439293 106.448407,289.205299 106.481806,288.940397 C106.531904,288.357613 106.728119,287.801327 107.070457,287.271523 C107.412794,286.741719 107.901244,286.150114 108.535821,285.496689 C109.036803,284.966885 109.416708,284.507728 109.675549,284.119205 C109.934389,283.730682 110.084682,283.452539 110.12643,283.284768 C110.168179,283.116997 110.189053,282.909494 110.189053,282.662252 C110.222451,281.973506 110.005363,281.364241 109.53778,280.834437 C108.9867,280.216332 108.310384,279.907285 107.508813,279.907285 C106.757341,279.907285 106.118599,280.189843 105.592568,280.754967 C105.066537,281.320091 104.803525,281.991166 104.803525,282.768212 C104.803525,283.033114 104.715855,283.258277 104.540511,283.443709 C104.365168,283.62914 104.152254,283.721854 103.901763,283.721854 C103.651272,283.721854 103.438358,283.62914 103.263014,283.443709 C103.08767,283.258277 103,283.033114 103,282.768212 C103,281.461362 103.438352,280.344375 104.315071,279.417219 C105.191789,278.490062 106.248009,278.01766 107.483764,278 C108.819716,278 109.938558,278.503306 110.840326,279.509934 C111.675295,280.445921 112.059376,281.532003 111.992578,282.768212 C111.959179,283.421637 111.796363,284.039732 111.504123,284.622517 C111.211884,285.205301 110.648288,285.947015 109.813318,286.847682 C108.828054,287.87197 108.31873,288.631344 108.285331,289.125828 C108.251933,289.37307 108.151738,289.580573 107.984744,289.748344 C107.81775,289.916116 107.61736,290 107.383569,290 Z M107.298851,292.709302 C107.099616,292.515503 107,292.279071 107,292 C107,291.720929 107.099616,291.484497 107.298851,291.290698 C107.498085,291.096898 107.731799,291 108,291 C108.268201,291 108.501915,291.096898 108.701149,291.290698 C108.900384,291.484497 109,291.720929 109,292 C109,292.279071 108.900384,292.515503 108.701149,292.709302 C108.501915,292.903102 108.268201,293 108,293 C107.731799,293 107.498085,292.903102 107.298851,292.709302 Z" id="question-circle-o---anticon"></path>
        </g>
    </g>
</svg>