<svg xmlns="http://www.w3.org/2000/svg" width="51" height="41" viewBox="0 0 51 41">
    <g fill="none" fill-rule="evenodd">
        <path stroke="#79C14F" stroke-linecap="round" stroke-width="1.62" d="M21.729 39.598H.809V19.304c0-1.192.984-2.167 2.186-2.167h16.548c1.202 0 2.186.975 2.186 2.167v20.294z"/>
        <path stroke="#79C14F" stroke-linecap="round" stroke-width="1.62" d="M7.883 17.138V3.97c0-1.192.984-2.167 2.186-2.167h15.227c1.202 0 2.186.975 2.186 2.167v5.215M41.238 39.598H21.639V22.649c0-1.191.984-2.167 2.186-2.167h15.227c1.202 0 2.186.976 2.186 2.167v16.949z"/>
        <path stroke="#79C14F" stroke-linecap="round" stroke-width="1.62" d="M25.685 20.483V11.35c0-1.192.984-2.167 2.185-2.167h16.086c1.204 0 2.188.975 2.188 2.167v12.242M41.238 23.594h7.119c.77 0 1.402.627 1.402 1.39V39.6M41.238 39.598h8.521"/>
        <path fill="#79C14F" d="M21.688 12.68h-7.884a1.36 1.36 0 0 1-1.362-1.352V7.435c0-.742.613-1.35 1.362-1.35h7.884c.749 0 1.364.608 1.364 1.35v3.893c0 .745-.615 1.352-1.364 1.352M36.729 37.286h-3.927a1.36 1.36 0 0 1-1.364-1.352v-2.986a1.36 1.36 0 0 1 1.364-1.352h3.927c.749 0 1.363.607 1.363 1.352v2.986c0 .744-.614 1.352-1.363 1.352"/>
        <path stroke="#79C14F" stroke-linecap="round" stroke-width="1.62" d="M15.21 28.724H7.327a1.36 1.36 0 0 1-1.361-1.352v-3.893c0-.743.613-1.35 1.361-1.35h7.885c.748 0 1.363.607 1.363 1.35v3.893c0 .744-.615 1.352-1.363 1.352zM37.972 17.48h-4.115a1.36 1.36 0 0 1-1.364-1.351v-2.441a1.36 1.36 0 0 1 1.364-1.352h4.115c.748 0 1.363.607 1.363 1.352v2.44c0 .745-.615 1.353-1.363 1.353z"/>
    </g>
</svg>
