<svg xmlns="http://www.w3.org/2000/svg" width="45" height="46" viewBox="0 0 45 46">
    <path fill="#79C14F" fill-rule="evenodd" d="M26.295 18.74l-5.737 5.713-1.863-1.876a1.303 1.303 0 0 0-1.852 0 1.318 1.318 0 0 0-.01 1.855l2.794 2.81c.246.245.578.385.931.385.342 0 .675-.14.92-.386l6.669-6.636c.514-.515.514-1.34.012-1.855a1.327 1.327 0 0 0-1.864-.01m16.369 8.707a1.52 1.52 0 0 1-.751 1.009l-1.212.677a3.832 3.832 0 0 0-1.909 4.047l.254 1.365c.085.443-.028.876-.3 1.224a1.515 1.515 0 0 1-1.118.583l-1.382.085a3.825 3.825 0 0 0-3.477 2.815l-.367 1.337a1.53 1.53 0 0 1-2.058 1.016l-1.288-.527a3.898 3.898 0 0 0-1.457-.292c-1.109 0-2.161.48-2.894 1.317l-.912 1.047a1.51 1.51 0 0 1-1.156.525c-.441 0-.846-.178-1.137-.507l-.93-1.036a3.843 3.843 0 0 0-2.857-1.28 3.78 3.78 0 0 0-1.514.31l-1.278.546a1.488 1.488 0 0 1-.601.123 1.533 1.533 0 0 1-1.467-1.102l-.384-1.336a3.842 3.842 0 0 0-3.517-2.767l-1.39-.057a1.481 1.481 0 0 1-1.119-.565 1.503 1.503 0 0 1-.319-1.214l.234-1.374a3.83 3.83 0 0 0-1.973-4.019l-1.221-.659a1.506 1.506 0 0 1-.771-.998 1.478 1.478 0 0 1 .244-1.233l.799-1.139a3.832 3.832 0 0 0-.037-4.48l-.818-1.12a1.482 1.482 0 0 1-.254-1.233 1.52 1.52 0 0 1 .753-1.006l1.212-.678a3.832 3.832 0 0 0 1.907-4.048l-.244-1.355a1.506 1.506 0 0 1 .3-1.224 1.516 1.516 0 0 1 1.118-.583l1.382-.085a3.836 3.836 0 0 0 3.478-2.815l.366-1.345a1.53 1.53 0 0 1 2.059-1.017l1.288.526c.47.189.958.292 1.456.292 1.11 0 2.162-.48 2.894-1.318l.912-1.044c.292-.34.706-.528 1.157-.528.44 0 .846.18 1.136.51l.93 1.034a3.844 3.844 0 0 0 2.858 1.28 3.79 3.79 0 0 0 1.514-.31l1.278-.546a1.532 1.532 0 0 1 2.067.978l.385 1.338a3.843 3.843 0 0 0 3.516 2.766l1.39.058c.443.019.847.215 1.129.564a1.5 1.5 0 0 1 .32 1.214l-.236 1.375a3.832 3.832 0 0 0 1.974 4.02l1.222.658a1.5 1.5 0 0 1 .77.997c.104.433.02.876-.234 1.233l-.798 1.14a3.835 3.835 0 0 0 .037 4.48l.817 1.12c.224.357.319.798.224 1.231m1.597-2.588l-.817-1.13a1.527 1.527 0 0 1-.009-1.787l.798-1.14c.63-.894.855-2.023.602-3.097a3.832 3.832 0 0 0-1.917-2.503l-1.223-.658a1.53 1.53 0 0 1-.789-1.601l.235-1.374a3.874 3.874 0 0 0-.799-3.05 3.84 3.84 0 0 0-2.81-1.421l-1.391-.056a1.52 1.52 0 0 1-1.4-1.102l-.404-1.328a3.85 3.85 0 0 0-3.685-2.767c-.517 0-1.033.104-1.513.31l-1.279.546a1.542 1.542 0 0 1-1.738-.385l-.93-1.036A3.833 3.833 0 0 0 22.346 0c-1.11 0-2.162.48-2.896 1.318l-.902 1.054a1.552 1.552 0 0 1-1.738.415l-1.288-.527a3.894 3.894 0 0 0-1.457-.292 3.836 3.836 0 0 0-3.694 2.824l-.366 1.345a1.527 1.527 0 0 1-1.39 1.12l-1.383.086A3.807 3.807 0 0 0 4.442 8.8a3.852 3.852 0 0 0-.754 3.06l.255 1.365a1.53 1.53 0 0 1-.762 1.619l-1.212.677a3.847 3.847 0 0 0-1.88 2.532 3.838 3.838 0 0 0 .65 3.088l.817 1.12c.385.528.395 1.252.008 1.788l-.798 1.14a3.855 3.855 0 0 0-.602 3.096 3.831 3.831 0 0 0 1.917 2.503l1.223.66c.583.31.892.95.788 1.6l-.234 1.374a3.876 3.876 0 0 0 .799 3.05 3.838 3.838 0 0 0 2.809 1.42l1.392.057c.657.028 1.222.47 1.4 1.101l.385 1.337a3.85 3.85 0 0 0 3.684 2.767c.517 0 1.034-.103 1.513-.31l1.277-.546a1.545 1.545 0 0 1 1.74.386l.93 1.035a3.844 3.844 0 0 0 2.85 1.28c1.11 0 2.161-.48 2.895-1.318l.91-1.054a1.553 1.553 0 0 1 1.74-.415l1.286.528c.47.188.96.292 1.458.292a3.833 3.833 0 0 0 3.693-2.824l.366-1.346c.17-.63.734-1.082 1.392-1.12l1.39-.085a3.823 3.823 0 0 0 2.791-1.459c.678-.866.95-1.976.753-3.058l-.254-1.365a1.53 1.53 0 0 1 .761-1.62l1.212-.678a3.849 3.849 0 0 0 1.88-2.531 3.836 3.836 0 0 0-.649-3.088M22.495 35.713c-6.994 0-12.698-5.7-12.698-12.718 0-7.005 5.692-12.717 12.698-12.717s12.698 5.71 12.698 12.717c0 7.007-5.701 12.718-12.698 12.718m0-28.035C14.06 7.678 7.2 14.546 7.2 22.995c0 8.44 6.86 15.318 15.295 15.318 8.438 0 15.295-6.88 15.295-15.318 0-8.45-6.857-15.317-15.295-15.317"/>
</svg>
