<svg xmlns="http://www.w3.org/2000/svg" width="31" height="20" viewBox="0 0 31 20">
    <path fill="#5ACF3C" fill-rule="evenodd" d="M0 17.78V2.29A2.266 2.266 0 0 1 2.273 0h26.454C29.967 0 31 .986 31 2.289v15.457c0 1.267-1.033 2.253-2.273 2.253H2.273C1.033 20.034 0 19.013 0 17.781m2.136-3.803v2.887c0 .177.206.282.344.282h2.859c.138 0 .275-.14.275-.282v-2.887a.275.275 0 0 0-.275-.281H2.48c-.138 0-.344.14-.344.281m0-5.387v2.817c0 .211.206.387.344.387h2.859c.138 0 .275-.176.275-.387V8.59c0-.176-.172-.387-.275-.387H2.48c-.138 0-.344.246-.344.387m0-5.528v3.028c0 .07.206.212.344.212h2.859c.103 0 .275-.106.275-.212V3.063c0-.07-.172-.211-.275-.211H2.48c-.138.035-.344.14-.344.211m9.988 2.782v9.154c0 .423.38.74.724.423l6.75-4.542c.173-.106.276-.247.276-.458 0-.211-.103-.317-.275-.387l-6.751-4.613c-.276-.105-.724.036-.724.423m13.227 8.133v2.887c0 .177.138.282.276.282h2.824c.207 0 .413-.14.413-.282v-2.887c0-.176-.206-.281-.413-.281h-2.824c-.138 0-.276.14-.276.281m0-5.387v2.817c0 .211.138.387.276.387h2.824c.207 0 .413-.176.413-.387V8.59c0-.176-.24-.387-.413-.387h-2.824c-.104 0-.276.246-.276.387m0-5.528v3.028c0 .07.172.212.276.212h2.824c.172 0 .413-.106.413-.212V3.063c0-.07-.24-.211-.413-.211h-2.824c-.104.035-.276.14-.276.211"/>
</svg>
