<?xml version="1.0" encoding="UTF-8" standalone="no"?>
<svg width="15px" height="20px" viewBox="0 0 15 20" version="1.1" xmlns="http://www.w3.org/2000/svg" xmlns:xlink="http://www.w3.org/1999/xlink">
    <!-- Generator: sketchtool 46.2 (44496) - http://www.bohemiancoding.com/sketch -->
    <title>3C3B3008-925E-4B3F-9762-6FAC365BAEBF</title>
    <desc>Created with sketchtool.</desc>
    <defs></defs>
    <g id="Page-1" stroke="none" stroke-width="1" fill="none" fill-rule="evenodd">
        <g id="1.Catalog-menu---Large-desktop" transform="translate(-100.000000, -365.000000)" fill="#5ACF3C">
            <path d="M104.975723,382.139262 L105.329454,381.676861 C105.78174,381.085634 106.071571,380.422252 106.273552,379.910382 L106.598964,379.085716 L107.312335,382.139262 L104.975723,382.139262 Z M104.179818,381.993027 C103.99334,382.093908 103.801638,382.145034 103.610029,382.145034 C103.409622,382.145034 103.209475,382.089146 103.015106,381.97895 C102.778007,381.844506 102.569525,381.65806 102.359023,381.392143 C102.008015,380.94879 101.730816,380.427071 101.460174,379.700468 C101.171047,378.924166 100.95347,378.061556 100.795034,377.063321 C100.62767,376.009007 100.548378,374.914501 100.552638,373.715381 C100.568122,372.147406 100.722743,370.759591 101.02528,369.472619 C101.253988,368.4997 101.528112,367.730865 101.887993,367.053063 C102.07649,366.698095 102.348132,366.245827 102.779267,365.896612 C103.047223,365.679592 103.326866,365.569549 103.610437,365.569549 C103.883783,365.569549 104.154666,365.671935 104.415584,365.873906 C104.851478,366.211311 105.13051,366.670703 105.324898,367.033196 C105.686334,367.707264 105.963051,368.478518 106.195668,369.460409 C106.40641,370.34982 106.544398,371.29011 106.617541,372.335052 C106.683942,373.283666 106.688554,374.237728 106.631247,375.170703 C106.531414,376.796814 106.278664,378.190457 105.858495,379.431255 C105.602059,380.188432 105.319619,380.767163 104.969629,381.252499 C104.810619,381.473004 104.555739,381.789666 104.179818,381.993027 Z M104.308231,371.094534 C104.115047,370.85018 103.867743,370.715622 103.611826,370.715622 C103.354816,370.715622 103.1064,370.851132 102.912346,371.097181 C102.76356,371.285819 102.642519,371.514476 102.542316,371.796203 C102.337575,372.371848 102.233389,373.029249 102.223906,373.805779 C102.227425,374.439464 102.284121,374.961107 102.40229,375.447262 C102.528943,375.968161 102.686361,376.329054 102.912698,376.617448 C103.106826,376.864754 103.355687,377.00097 103.613456,377.00097 C103.871318,377.00097 104.117437,376.86384 104.30649,376.614876 C104.424863,376.458983 104.533087,376.267527 104.628122,376.045803 C104.806896,375.628737 104.911693,375.158506 104.967888,374.521106 C105.041772,373.683564 104.986058,372.915796 104.797561,372.173934 C104.67991,371.71098 104.524437,371.367994 104.308231,371.094534 Z M114.734189,384.433098 C114.886402,384.435689 115.000682,384.55798 114.999997,384.717549 C114.99933,384.876909 114.883772,384.997181 114.731207,384.997333 C114.43432,384.997638 114.137414,384.998057 113.840508,384.998495 C113.320561,384.999238 112.800596,385 112.280667,385 C111.482077,385 110.825513,384.998171 110.21442,384.994266 C109.755188,384.991352 109.314348,384.805648 108.866729,384.426546 C108.440855,384.065901 108.087995,383.60089 107.756267,382.963185 C107.667603,382.792777 107.535246,382.709936 107.35162,382.709936 L107.349749,382.709936 C107.174291,382.71045 106.99874,382.710659 106.823282,382.710659 C106.559049,382.710659 106.294816,382.710221 106.030564,382.709764 C105.766052,382.709326 105.501541,382.708869 105.237048,382.708869 C104.642069,382.708869 104.184838,382.711212 103.754482,382.71645 C103.745202,382.716564 103.735904,382.716622 103.726662,382.716622 C103.160855,382.716622 102.669413,382.501564 102.224332,382.059145 C101.831945,381.669127 101.50596,381.176324 101.198441,380.508256 C100.82215,379.690753 100.538376,378.750844 100.330931,377.634832 C100.150898,376.666503 100.04486,375.638857 100.015762,374.580448 C100.014447,374.532751 100.007594,374.491263 100.002093,374.457928 C100.001389,374.453718 100.000685,374.449528 100,374.445318 L100,373.248693 C100.000833,373.242921 100.001723,373.23715 100.002593,373.231378 C100.007742,373.197243 100.014151,373.154746 100.015521,373.107353 C100.045138,372.092565 100.145156,371.105454 100.312872,370.173451 C100.50787,369.089669 100.774808,368.169037 101.12891,367.358906 C101.435058,366.658455 101.760914,366.139384 102.154356,365.725423 C102.50342,365.35813 102.863041,365.135206 103.253779,365.043888 C103.305603,365.031773 103.359076,365.021563 103.415679,365.010743 C103.434293,365.0072 103.452908,365.003638 103.471522,365 L108.173658,365 C108.219722,365.010705 108.26536,365.020458 108.309776,365.029944 C108.422463,365.054002 108.52889,365.076746 108.625593,365.110843 C108.969063,365.231953 109.277786,365.456344 109.597215,365.816951 C109.996324,366.267562 110.32431,366.825567 110.629329,367.573029 C110.940145,368.334759 111.177818,369.186511 111.355887,370.176956 C111.563759,371.333312 111.665203,372.542776 111.665963,373.874454 C111.666277,374.390116 111.666018,374.905796 111.665777,375.421457 C111.665407,376.22856 111.664999,377.06313 111.666833,377.884177 C111.670019,379.293554 111.863017,380.538505 112.256867,381.690176 C112.51434,382.44299 112.816302,383.024826 113.207225,383.521267 C113.45829,383.84012 113.719485,384.072568 114.005723,384.231908 C114.237895,384.361152 114.482977,384.428832 114.734189,384.433098 Z M103.611981,367.020351 C103.142988,367.020351 102.689665,367.315184 102.335545,367.85056 C102.064032,368.261035 101.843177,368.758524 101.660329,369.371523 C101.286687,370.624017 101.096596,372.054424 101.079278,373.744043 C101.079278,373.745776 101.079297,373.747491 101.079297,373.749224 C101.0968,372.173649 101.28689,370.839665 101.660329,369.671518 C101.843177,369.099511 102.064032,368.635281 102.335545,368.252254 C102.689665,367.752689 103.142988,367.477553 103.611981,367.477553 C104.078956,367.477553 104.53026,367.750784 104.882769,368.246882 C105.277304,368.802107 105.561022,369.498481 105.77571,370.438447 L105.77571,370.193408 C105.561022,369.186086 105.277304,368.439805 104.882769,367.844807 C104.53026,367.313145 104.078956,367.020351 103.611981,367.020351 Z" id="Fill-8"></path>
        </g>
    </g>
</svg>