<?xml version="1.0" encoding="UTF-8" standalone="no"?>
<svg width="20px" height="20px" viewBox="0 0 20 20" version="1.1" xmlns="http://www.w3.org/2000/svg" xmlns:xlink="http://www.w3.org/1999/xlink">
    <!-- Generator: sketchtool 46.2 (44496) - http://www.bohemiancoding.com/sketch -->
    <title>CE4C3550-B8C4-46DF-8C10-F74AA3280541</title>
    <desc>Created with sketchtool.</desc>
    <defs></defs>
    <g id="Page-1" stroke="none" stroke-width="1" fill="none" fill-rule="evenodd">
        <g id="1.Catalog-menu---Large-desktop" transform="translate(-97.000000, -462.000000)" fill="#5ACF3C">
            <path d="M111.168592,472.059254 C111.210285,474.288549 109.358293,476.224376 107.14138,476.26858 C104.723825,476.316819 102.874768,474.503471 102.823563,472.034148 C102.777781,469.833546 104.702935,467.87611 106.941895,467.846431 C109.244772,467.816036 111.124232,469.689368 111.168592,472.059254 Z M97,471.688739 C97.2130861,471.361379 97.5093799,471.223477 97.9005267,471.237554 C98.4027948,471.255666 98.9063074,471.238271 99.4091978,471.243024 C99.9600926,471.248224 100.318881,471.569935 100.326526,472.05582 C100.334438,472.550581 100.004008,472.875341 99.4380893,472.893453 C98.891195,472.911027 98.3387,472.945547 97.7982951,472.885025 C97.5212921,472.854001 97.2654465,472.631637 97,472.495707 C97,472.226718 97,471.957728 97,471.688739 Z M106.423083,482 C105.968464,481.158601 106.14848,480.260894 106.23551,479.385692 C106.274892,478.989829 106.63688,478.793198 107.02296,478.804047 C107.385304,478.814269 107.727202,478.997719 107.765517,479.385782 C107.85228,480.262597 108.027852,481.157794 107.578744,482 L106.423083,482 Z M115.275527,472.898268 C114.980033,472.898268 114.683206,472.91638 114.389402,472.894233 C113.892823,472.856754 113.601774,472.52778 113.609064,472.047544 C113.615909,471.589903 113.950428,471.253756 114.435095,471.2447 C115.011147,471.233941 115.587733,471.232596 116.163697,471.245328 C116.647563,471.255998 116.986705,471.594566 116.999596,472.047903 C117.012752,472.509668 116.704013,472.850029 116.205745,472.886612 C115.897273,472.909296 115.585689,472.890826 115.275527,472.890826 C115.275527,472.893336 115.275527,472.895757 115.275527,472.898268 Z M101.7881,467.691745 C101.505763,467.531786 101.292854,467.457993 101.141996,467.316773 C100.720535,466.922256 100.318543,466.50577 99.920729,466.086505 C99.5813202,465.728749 99.572875,465.261156 99.8790363,464.927699 C100.17853,464.601774 100.716179,464.582765 101.071323,464.917746 C101.502118,465.3241 101.915845,465.749551 102.325215,466.178051 C102.587817,466.452959 102.654312,466.813494 102.460694,467.12059 C102.314637,467.35219 102.029633,467.494665 101.7881,467.691745 Z M112.174497,467.674583 C111.957944,467.495167 111.69232,467.355024 111.545995,467.134273 C111.352644,466.842599 111.396648,466.484753 111.638893,466.222847 C112.072532,465.754178 112.524218,465.300572 112.992705,464.867499 C113.306334,464.577529 113.777488,464.619132 114.075915,464.912689 C114.400567,465.23207 114.438259,465.68971 114.123564,466.034375 C113.702903,466.495064 113.262863,466.939256 112.807888,467.365335 C112.668942,467.495526 112.453545,467.542778 112.174497,467.674583 Z M102.62294,477.377901 C102.458481,477.675403 102.378651,477.904762 102.229927,478.071804 C101.884739,478.459687 101.514217,478.825961 101.139071,479.185151 C100.734857,479.571958 100.269659,479.579848 99.9149596,479.229714 C99.5711059,478.890339 99.5806179,478.391364 99.9633195,477.996577 C100.345666,477.602328 100.742946,477.222336 101.142983,476.846199 C101.403451,476.601239 101.733881,476.502161 102.032309,476.7074 C102.263352,476.866283 102.418299,477.137783 102.62294,477.377901 Z M107.834376,463.680252 C107.834376,463.963139 107.853311,464.24764 107.830198,464.528644 C107.789039,465.029323 107.461364,465.332474 106.997944,465.331309 C106.535324,465.330053 106.196538,465.02493 106.172269,464.523713 C106.144889,463.959194 106.147733,463.391626 106.169246,462.826569 C106.188093,462.329028 106.525457,462.007586 106.979543,462.000144 C107.444474,461.992522 107.780327,462.288411 107.827709,462.787386 C107.855712,463.082467 107.832865,463.38248 107.832865,463.680252 C107.833398,463.680252 107.833843,463.680252 107.834376,463.680252 Z M114.39982,478.72006 C114.24594,478.919112 114.116061,479.230153 113.890352,479.338915 C113.665264,479.447407 113.252871,479.466685 113.082011,479.3269 C112.546762,478.888895 112.061118,478.379967 111.607832,477.853376 C111.355809,477.560715 111.458218,477.109261 111.745267,476.843948 C112.043427,476.568324 112.41795,476.497848 112.715222,476.747381 C113.23527,477.18404 113.703846,477.684988 114.175,478.177418 C114.277765,478.284835 114.300345,478.470168 114.39982,478.72006 Z" id="Fill-18"></path>
        </g>
    </g>
</svg>