<?xml version="1.0" encoding="UTF-8" standalone="no"?>
<svg width="10px" height="19px" viewBox="0 0 10 19" version="1.1" xmlns="http://www.w3.org/2000/svg" xmlns:xlink="http://www.w3.org/1999/xlink">
    <!-- Generator: sketchtool 46.2 (44496) - http://www.bohemiancoding.com/sketch -->
    <title>D1236F8E-1D28-4DC1-8FFA-DD69320EB233</title>
    <desc>Created with sketchtool.</desc>
    <defs></defs>
    <g id="Page-1" stroke="none" stroke-width="1" fill="none" fill-rule="evenodd">
        <g id="1.Catalog-menu---Large-desktop" transform="translate(-101.000000, -416.000000)" fill="#5ACF3C">
            <path d="M103.925854,417.376141 C103.91955,417.393154 103.88983,417.403004 103.868216,417.410168 C103.180161,417.640298 102.775793,418.182938 102.437169,418.799005 C102.398444,418.869745 102.346209,418.952126 102.280466,418.982571 C102.219225,419.011225 102.112955,419.004062 102.05982,418.964662 C102.015691,418.931531 101.98507,418.813332 102.007585,418.759605 C102.336303,417.971613 102.846941,417.363605 103.636763,417.043035 C103.690799,417.021544 103.750238,417.014381 103.806976,417.000054 C103.908743,416.998263 103.993399,417.041244 103.999703,417.141534 C104.004206,417.218542 103.956474,417.299133 103.925854,417.376141 M110.907671,420.345923 C111.168687,422.14455 110.89267,423.828284 109.869606,425.329004 C109.652593,425.648262 109.398577,425.940069 109.155562,426.24001 C109.014553,426.412857 108.892546,426.581637 108.839542,426.820573 C108.753537,427.20592 108.649531,427.61872 108.544524,428 L103.455208,428 C103.400205,427.792583 103.345201,427.554664 103.291198,427.347248 C103.231194,427.111362 103.180191,426.873443 103.116187,426.638575 C103.097186,426.570453 103.053183,426.505381 103.00918,426.44946 C102.719162,426.08038 102.407143,425.729602 102.138126,425.344255 C101.470085,424.392579 101.113063,423.314826 101.026057,422.134382 C100.951053,421.122718 101.029057,420.129356 101.377079,419.17768 C101.903112,417.738982 102.911174,416.838143 104.267258,416.33892 C104.836294,416.12947 105.42433,415.992209 106.027368,416.000343 C106.675408,416.008477 107.306447,416.158956 107.911485,416.408059 C109.622591,417.112665 110.629653,418.42732 110.907671,420.345923 Z M108.020069,430.04866 C108.383609,429.912572 108.797924,430.071804 108.947198,430.403228 C109.095458,430.734652 108.920796,431.11329 108.557256,431.248452 L103.979489,432.95186 C103.892158,432.985188 103.800765,433 103.711404,433 C103.431132,433 103.166093,432.848174 103.053375,432.597292 C102.9041,432.265868 103.078762,431.88723 103.442302,431.752068 L108.020069,430.04866 Z M108.00207,433.043555 C108.374356,432.921433 108.795246,433.065155 108.946229,433.361737 C109.097211,433.65915 108.919341,433.998932 108.549124,434.120223 L105.99793,434.9568 C105.907961,434.985877 105.815924,435 105.72492,435 C105.438467,435 105.16856,434.862924 105.053771,434.637788 C104.902789,434.341206 105.080659,434.001424 105.450876,433.880133 L108.00207,433.043555 Z M108.343403,428.010882 C108.97443,428.099751 109.174851,428.720021 108.838501,429.091821 C108.763095,429.174342 108.656932,429.246888 108.549777,429.285882 C107.382972,429.715718 106.212198,430.136487 105.042416,430.560882 C104.688207,430.688745 104.334991,430.819328 103.97979,430.945377 C103.576965,431.089563 103.193983,430.940843 103.050116,430.58718 C102.904266,430.228983 103.084843,429.864438 103.486676,429.714812 C103.800205,429.596924 104.116711,429.483571 104.428256,429.341199 C104.186164,429.341199 103.945064,429.344826 103.703964,429.340292 C103.382497,429.333944 103.1156,429.130814 103.036226,428.838816 C102.961812,428.562233 103.091788,428.26026 103.354716,428.113353 C103.427145,428.073453 103.508504,428.048969 103.599785,428.010882 C103.598793,428.007255 103.596808,428.003627 103.595816,428 L108.345387,428 C108.344395,428.003627 108.344395,428.006348 108.343403,428.010882 Z" id="Fill-7"></path>
        </g>
    </g>
</svg>