<?xml version="1.0" encoding="UTF-8" standalone="no"?>
<svg width="14px" height="19px" viewBox="0 0 14 19" version="1.1" xmlns="http://www.w3.org/2000/svg" xmlns:xlink="http://www.w3.org/1999/xlink">
    <!-- Generator: sketchtool 46.2 (44496) - http://www.bohemiancoding.com/sketch -->
    <title>79602E21-405A-49F1-ADD2-C655FFB69408</title>
    <desc>Created with sketchtool.</desc>
    <defs></defs>
    <g id="Page-1" stroke="none" stroke-width="1" fill="none" fill-rule="evenodd">
        <g id="2.Catalog-menu---Desktop" transform="translate(-23.000000, -219.000000)">
            <g id="Group-4" transform="translate(23.000000, 220.000000)">
                <path d="M0.995342857,5.650821 C0.995342857,2.529981 3.68162857,-8.99999977e-06 6.99534286,-8.99999977e-06 C10.3090571,-8.99999977e-06 12.9953429,2.529981 12.9953429,5.650821" id="Stroke-1" stroke="#5ACF3C" stroke-width="1.35"></path>
                <path d="M13.5450571,6.948378 L13.9948381,6.948378 L13.9948381,8.180766 L0,8.180766 L0,6.948378 L0,6.948378 L0.445628573,6.948378 C0.445628571,6.661422 0.69172381,6.428862 0.995342857,6.428862 C1.2989619,6.428862 1.54505714,6.661422 1.54505714,6.948342 L12.4456286,6.948378 C12.4456286,6.661422 12.6917238,6.428862 12.9953429,6.428862 C13.2989619,6.428862 13.5450571,6.661422 13.5450571,6.948342 Z M12.9948095,8.83800659 L13.6624286,8.83800659 L12.561381,16.219621 C12.4668095,17.061661 11.7151905,17.700481 10.8191905,17.700481 L3.17147619,17.700481 C2.27547619,17.700481 1.52385714,17.061661 1.42928571,16.219621 L0.328333333,8.83800659 L0.714714286,8.83800659 C0.714809524,9.36594659 1.17138095,9.79803659 1.73004762,9.79803659 L2.04290476,9.79803659 C2.45042857,9.79803659 2.78071429,10.1101566 2.78071429,10.4952666 L2.78071429,12.7216866 C2.78071429,13.2499866 3.21814286,13.7032266 3.77709524,13.7128566 C4.34652381,13.7227566 4.81147619,13.2894966 4.81147619,12.7535466 L4.81147619,11.7940566 L4.81147619,11.2479366 C4.81147619,10.9643466 4.97614286,10.7174766 5.2197619,10.5868866 C5.2197619,10.5868866 5.38128571,10.4878866 5.6157619,10.4878866 C5.85014286,10.4878866 6.11957143,10.6560066 6.11957143,10.6560066 C6.30261905,10.7953266 6.42004762,11.0085366 6.42004762,11.2479366 L6.42004762,14.6225766 C6.42004762,15.1270266 6.83766667,15.5598366 7.37138095,15.5690166 C7.91519048,15.5784666 8.35909524,15.1647366 8.35909524,14.6529966 L8.35909524,11.8723566 L8.35909524,11.0831466 C8.35909524,10.8234966 8.56004762,10.5915666 8.83366667,10.5669066 C9.14747619,10.5385566 9.41157143,10.7710266 9.41157143,11.0618166 L9.41157143,11.4958866 C9.41157143,11.9484066 9.773,12.3436866 10.2509048,12.3728466 C10.774619,12.4048866 11.2099524,12.0130266 11.2099524,11.5249566 L11.2099524,10.4952666 C11.2099524,10.1101566 11.5402381,9.79803659 11.9477619,9.79803659 C12.4755714,9.79803659 12.9388095,9.43002659 12.9903333,8.93358659 C12.9937619,8.90136659 12.9948095,8.86959659 12.9948095,8.83800659 Z" id="Fill-3" fill="#5ACF3C"></path>
            </g>
        </g>
    </g>
</svg>