<?xml version="1.0" encoding="UTF-8" standalone="no"?>
<svg width="11px" height="10px" viewBox="0 0 11 10" version="1.1" xmlns="http://www.w3.org/2000/svg" xmlns:xlink="http://www.w3.org/1999/xlink">
    <!-- Generator: sketchtool 46.2 (44496) - http://www.bohemiancoding.com/sketch -->
    <title>8A00733D-C294-4111-AE54-2F4272DC27F4</title>
    <desc>Created with sketchtool.</desc>
    <defs></defs>
    <g id="Page-1" stroke="none" stroke-width="1" fill="none" fill-rule="evenodd">
        <g id="1.Contacts---Large-desktop" transform="translate(-109.000000, -276.000000)" fill="#5ACF3C">
            <path d="M115.203624,277.915565 C115.203648,278.332289 115.204538,278.749013 115.20339,279.165737 C115.202476,279.498695 114.929369,279.781869 114.579258,279.815782 C114.216169,279.850957 113.875055,279.622905 113.805056,279.294196 C113.787463,279.211516 113.774531,279.126311 113.77425,279.042214 C113.771931,278.289897 113.772587,277.537602 113.773079,276.785285 C113.773243,276.543619 113.834667,276.32504 114.042625,276.163132 C114.274221,275.982784 114.535615,275.952457 114.798649,276.069738 C115.045237,276.179691 115.203531,276.367167 115.203577,276.643278 C115.203648,277.067374 115.203601,277.491469 115.203624,277.915565 Z M111.536014,285.996241 C111.250654,285.991858 111.031897,285.874179 110.902488,285.633066 C110.771135,285.388278 110.796365,285.143135 110.96403,284.921436 C111.460721,284.264705 111.962682,283.611539 112.463332,282.957487 C112.7147,282.629133 113.143781,282.561527 113.495321,282.793277 C113.798391,282.993105 113.872794,283.421827 113.640683,283.731409 C113.194172,284.326843 112.737845,284.915725 112.284704,285.506709 C112.21159,285.602096 112.139202,285.698723 112.057162,285.787071 C111.920842,285.933859 111.746736,286.006357 111.536014,285.996241 Z M117.367676,285.999384 C117.207086,286.009213 117.017073,285.900765 116.87649,285.718912 C116.368062,285.061252 115.859541,284.403503 115.362288,283.738294 C115.031434,283.295714 115.305385,282.720934 115.873035,282.65749 C116.148368,282.62672 116.369234,282.745705 116.528628,282.952108 C117.034385,283.607045 117.537308,284.264019 118.035334,284.924225 C118.208339,285.153562 118.22851,285.405743 118.082421,285.655092 C117.948632,285.88341 117.734255,285.994403 117.367676,285.999384 Z M116.827259,281.42586 C116.466442,281.412556 116.173938,281.185942 116.119166,280.866442 C116.060295,280.523234 116.246982,280.207919 116.586457,280.101463 C117.401422,279.845939 118.217253,279.592695 119.035146,279.345649 C119.508879,279.202557 119.913948,279.445131 119.992849,279.906306 C120.040897,280.187066 119.841771,280.517501 119.547111,280.61229 C118.978102,280.795317 118.405181,280.96743 117.833853,281.144015 C117.589092,281.219678 117.34501,281.297467 117.099078,281.369588 C117.010806,281.395466 116.91799,281.407508 116.827259,281.42586 Z M112.884348,280.743156 C112.924806,281.118595 112.491742,281.544484 111.956959,281.386184 C111.126439,281.140378 110.300675,280.88005 109.474629,280.620984 C109.112712,280.507489 108.916537,280.122442 109.034069,279.778725 C109.156918,279.419446 109.542848,279.217603 109.916221,279.330833 C110.748685,279.583324 111.579346,279.841195 112.409421,280.100704 C112.708719,280.194254 112.884419,280.439839 112.884348,280.743156 Z" id="Fill-10"></path>
        </g>
    </g>
</svg>