<?xml version="1.0" encoding="UTF-8" standalone="no"?>
<svg width="12px" height="12px" viewBox="0 0 12 12" version="1.1" xmlns="http://www.w3.org/2000/svg" xmlns:xlink="http://www.w3.org/1999/xlink">
    <!-- Generator: sketchtool 46.2 (44496) - http://www.bohemiancoding.com/sketch -->
    <title>B6580A97-5445-48B9-88E5-37889A7EDC33</title>
    <desc>Created with sketchtool.</desc>
    <defs></defs>
    <g id="Page-1" stroke="none" stroke-width="1" fill="none" fill-rule="evenodd">
        <g id="1.Contacts---Large-desktop" transform="translate(-109.000000, -301.000000)" fill="#5ACF3C">
            <path d="M114.589423,301 L115.387306,301 C115.559236,301.022211 115.731964,301.039606 115.903013,301.067349 C117.401768,301.310651 118.642723,302.012734 119.616443,303.17756 C120.364472,304.07244 120.806445,305.104193 120.948908,306.262303 C120.974523,306.470431 120.98341,306.680651 121,306.889908 L121,307.110092 C120.990535,307.274211 120.988004,307.439101 120.970561,307.602367 C120.826254,308.951789 120.294919,310.129826 119.368247,311.11867 C118.54794,311.994009 117.547065,312.574716 116.375993,312.848239 C116.095743,312.913716 115.808753,312.950183 115.524872,313 L114.451857,313 C114.40712,312.991633 114.362274,312.983817 114.317675,312.974789 C113.976649,312.905899 113.633972,312.844055 113.295339,312.764954 C113.101261,312.719624 113.104287,312.705257 113.144512,312.50456 C113.352704,311.465101 113.751728,310.506119 114.361586,309.638156 C115.053928,308.65278 115.938313,307.894936 117.039391,307.396578 C117.12438,307.358101 117.190164,307.357193 117.262193,307.426716 C117.544891,307.699495 117.885422,307.820596 118.277266,307.795743 C118.920854,307.754927 119.515773,307.231908 119.501053,306.451303 C119.488314,305.774514 119.012639,305.271202 118.342609,305.167826 C117.657145,305.062055 116.929944,305.61422 116.880998,306.292275 C116.86947,306.452156 116.80308,306.509046 116.662818,306.55355 C115.341001,306.972972 114.164316,307.650422 113.138651,308.582569 C112.274489,309.367908 111.57879,310.283679 111.07351,311.340174 C111.053013,311.383055 111.025555,311.422633 110.997656,311.469972 C110.960101,311.44333 110.934348,311.43122 110.916877,311.411734 C110.65154,311.115284 110.384304,310.820431 110.125955,310.517982 C110.086831,310.472211 110.072635,310.388734 110.077202,310.324853 C110.096048,310.060028 110.112474,309.793743 110.155009,309.532083 C110.457187,307.673018 111.343965,306.162202 112.852376,305.023468 C112.941272,304.956339 113.001058,304.949982 113.087724,305.028174 C113.35397,305.268257 113.66729,305.384596 114.030327,305.376064 C114.601776,305.362633 115.114017,304.958349 115.261625,304.391679 C115.411655,303.815789 115.163651,303.210422 114.659526,302.922009 C113.76499,302.41022 112.697119,303.004991 112.66702,304.034128 C112.664049,304.135633 112.630785,304.190211 112.533746,304.228083 C112.311824,304.314642 112.08927,304.402881 111.877006,304.510303 C110.707612,305.102239 109.767018,305.943615 109.102079,307.081661 C109.081664,307.116615 109.054453,307.147606 109.007543,307.211706 C109.007543,306.928633 108.988532,306.689239 109.010872,306.45378 C109.101473,305.497853 109.390197,304.605284 109.914571,303.796826 C110.823442,302.395578 112.08971,301.499321 113.721986,301.133982 C114.006858,301.070239 114.300066,301.043706 114.589423,301" id="Fill-1"></path>
        </g>
    </g>
</svg>