<?xml version="1.0" encoding="UTF-8" standalone="no"?>
<svg width="12px" height="12px" viewBox="0 0 12 12" version="1.1" xmlns="http://www.w3.org/2000/svg" xmlns:xlink="http://www.w3.org/1999/xlink">
    <!-- Generator: sketchtool 46.2 (44496) - http://www.bohemiancoding.com/sketch -->
    <title>A19DBB2C-A109-4D14-81B8-AF49226F2309</title>
    <desc>Created with sketchtool.</desc>
    <defs></defs>
    <g id="Page-1" stroke="none" stroke-width="1" fill="none" fill-rule="evenodd">
        <g id="1.Contacts---Large-desktop" transform="translate(-109.000000, -250.000000)" fill="#5ACF3C">
            <path d="M115.458629,250 C115.884976,250.089845 116.312561,250.174203 116.736928,250.272565 C116.879814,250.305735 117.014285,250.374368 117.161955,250.430224 C116.565993,250.557497 115.973826,250.633992 115.414493,250.812126 C113.103079,251.548494 111.596592,253.594125 111.656568,255.862935 C111.698971,257.469988 112.732912,258.872699 114.177691,259.283594 C115.900981,259.773687 117.754617,258.736007 118.232525,256.996438 C118.642125,255.505275 118.029169,253.631062 115.990243,253.096169 C115.873674,253.065538 115.760983,253.020247 115.637484,252.978642 C115.756198,251.944156 116.172233,251.127116 117.185137,250.747343 C117.397073,250.667899 117.723021,250.675762 117.91359,250.785427 C119.79214,251.866514 120.831856,253.485852 120.985136,255.649256 C121.199877,258.679741 119.065667,261.398594 116.01722,261.913421 C112.870106,262.444792 109.794269,260.485894 109.133134,257.255408 C108.443538,253.885691 110.493848,250.857335 113.870965,250.128912 C114.096431,250.080344 114.324371,250.042752 114.551157,250 L115.458629,250 Z" id="Fill-1"></path>
        </g>
    </g>
</svg>